<?xml version="1.0" encoding="utf-8"?>
<!-- Generator: Adobe Illustrator 28.2.0, SVG Export Plug-In . SVG Version: 6.00 Build 0)  -->
<svg version="1.1" id="Capa_1" xmlns="http://www.w3.org/2000/svg" xmlns:xlink="http://www.w3.org/1999/xlink" x="0px" y="0px"
	 viewBox="0 0 80 80" style="enable-background:new 0 0 80 80;" xml:space="preserve">
<style type="text/css">
	.st0{fill:#07355A;}
	.st1{fill:#FFFFFF;}
</style>
<g>
	<circle class="st0" cx="40" cy="40" r="40"/>
</g>
<g>
	<path class="st1" d="M36.5,63.5c-0.1,0-0.1-0.1-0.2-0.1c-1.7-0.4-2.9-1.8-2.9-3.6c0-0.5-0.1-0.8-0.5-1.2c-0.9-0.7-1.3-1.7-1.3-2.8
		c0-1.4-0.1-2.7-0.1-4.1c0-1.2-0.4-2.3-1.1-3.2c-0.7-0.8-1.5-1.6-2.2-2.4c-2.9-3.5-4-7.6-3.3-12.1c0.1-0.5,0.4-0.8,0.9-0.7
		c0.5,0.1,0.7,0.5,0.6,1.1c-0.4,2.2-0.2,4.4,0.5,6.6c0.7,1.9,1.7,3.5,3.1,5c0.5,0.5,1,1.1,1.5,1.7c0.6,0.7,1,1.5,1.3,2.5
		c0.1,0.2,0.1,0.3,0.4,0.3c4,0,8,0,12-0.1c0.1,0,0.3-0.1,0.4-0.2c0.3-1.6,1.3-2.9,2.4-4c2-2,3.2-4.4,3.8-7.2
		c1.3-7.3-3.9-14.3-11.2-15.2c-5.3-0.6-10.6,2.2-13,7.1c-0.3,0.7-0.7,0.9-1.1,0.7c-0.5-0.2-0.5-0.6-0.2-1.3c2.8-5.2,7.1-8,13-8
		c6.8,0,12.7,5.1,13.8,11.9c0.8,4.9-0.5,9.1-3.8,12.8c-0.5,0.6-1.1,1.2-1.5,1.9c-0.6,0.8-0.9,1.8-0.9,2.8c0,1.4,0,2.8,0,4.2
		c0,1.3-0.5,2.4-1.6,3.2c-0.3,0.2-0.2,0.5-0.2,0.8c0,1.6-0.7,2.7-2.1,3.5c-0.3,0.2-0.7,0.2-1,0.3C40.2,63.5,38.4,63.5,36.5,63.5z
		 M45.4,52c-4.2,0-8.3,0-12.4,0.1c0,0.8,0,1.6,0,2.4c0.2,0,0.4,0,0.5,0c1.7,0,3.3,0,5,0c0.6,0,1.2,0,1.8,0c0.4,0,0.7,0.3,0.7,0.7
		c0,0.4-0.2,0.7-0.6,0.8c-0.2,0-0.3,0-0.5,0c-2.1,0-4.3,0-6.4,0c-0.2,0-0.3,0-0.5,0c-0.1,1.2,0.9,2.4,2.2,2.4c2.6,0,5.3,0,7.9,0
		c1.3,0,2.3-1.2,2.2-2.4c-0.5,0-1,0-1.5,0c-0.6,0-0.9-0.3-0.9-0.7c0-0.5,0.3-0.7,0.9-0.7c0.5,0,1,0,1.5,0
		C45.4,53.5,45.4,52.7,45.4,52z M34.9,59.7c-0.2,1.2,0.7,2.3,2,2.4c1.6,0,3.2,0,4.8,0c1.3,0,2.2-1.3,1.9-2.4
		C40.7,59.7,37.8,59.7,34.9,59.7z"/>
	<path class="st1" d="M39.2,14.2c0.4,0.3,0.5,0.6,0.4,1.1c0,1.4,0,2.8,0,4.2c0,0.2,0,0.4,0,0.5c-0.1,0.4-0.4,0.6-0.7,0.5
		c-0.2-0.1-0.5-0.3-0.7-0.5c-0.1-0.1-0.1-0.3-0.1-0.5c0-1.4,0-2.8,0-4.2c0-0.4,0.1-0.8,0.4-1.1C38.8,14.2,39,14.2,39.2,14.2z"/>
	<path class="st1" d="M63,38.3c-0.3,0.4-0.6,0.5-1,0.5c-1.4,0-2.8,0-4.2,0c-0.1,0-0.3,0-0.4,0c-0.4-0.1-0.6-0.3-0.6-0.7
		c0-0.4,0.2-0.7,0.7-0.7c0.7,0,1.4,0,2.1,0c0.8,0,1.7,0,2.5,0c0.4,0,0.8,0.1,1,0.4C63,38,63,38.2,63,38.3z"/>
	<path class="st1" d="M38,39c1.1-1.5,2.2-2.9,3.3-4.3c0.4-0.6,0.9-1.2,1.4-1.8c0.8-1.1,2.3-1.3,3.3-0.5c1,0.8,1.2,2.2,0.4,3.3
		c-0.4,0.6-0.9,1.2-1.3,1.7c-0.3,0.4-0.7,0.5-1.1,0.2c-0.4-0.3-0.4-0.7-0.1-1.1c0.4-0.6,0.8-1.1,1.3-1.6c0.4-0.5,0.3-1-0.1-1.3
		c-0.4-0.3-0.9-0.3-1.3,0.2c-1.6,2.1-3.3,4.2-4.9,6.4c-0.6,0.7-0.9,0.7-1.5,0.1c-1-1.1-2-2.2-3-3.2c-0.2-0.2-0.6-0.4-0.9-0.4
		c-0.7,0.1-1,0.9-0.5,1.5c0.7,0.8,1.4,1.5,2,2.2c0.8,0.9,1.6,1.7,2.4,2.6c0.5,0.6,1.1,0.5,1.5-0.1c0.8-1.1,1.6-2.1,2.4-3.2
		c0.1-0.1,0.2-0.3,0.3-0.4c0.3-0.3,0.7-0.4,1-0.2c0.3,0.2,0.4,0.7,0.1,1c-1,1.3-1.9,2.6-3,3.8c-0.8,1-2.4,1-3.3,0.1
		c-1.6-1.7-3.2-3.5-4.8-5.2c-0.8-0.9-0.7-2.3,0.2-3.2c0.9-0.8,2.3-0.8,3.2,0.1c0.7,0.8,1.5,1.6,2.2,2.4C37.5,38.6,37.7,38.8,38,39z"
		/>
	<path class="st1" d="M18.2,37.6c0.8,0,1.5,0,2.3,0c0.5,0,0.8,0.3,0.8,0.7c0,0.4-0.3,0.7-0.8,0.7c-1.6,0-3.1,0-4.7,0
		c-0.5,0-0.8-0.3-0.8-0.7c0-0.4,0.3-0.7,0.8-0.7C16.6,37.6,17.4,37.6,18.2,37.6z"/>
	<path class="st1" d="M22.6,55.5c-0.2-0.2-0.5-0.3-0.6-0.5c-0.2-0.3-0.1-0.6,0.2-0.9c0.8-0.8,1.5-1.5,2.3-2.3
		c0.4-0.4,0.7-0.7,1.1-1.1c0.3-0.3,0.8-0.3,1.1,0c0.3,0.3,0.3,0.7,0,1c-1.1,1.1-2.2,2.3-3.4,3.4C23,55.3,22.8,55.4,22.6,55.5z"/>
	<path class="st1" d="M22.4,21c0.3,0.1,0.5,0.2,0.6,0.3c1.1,1.1,2.3,2.2,3.4,3.3c0.3,0.3,0.4,0.8,0.1,1.1c-0.3,0.3-0.7,0.3-1.1,0
		c-1.1-1.1-2.3-2.2-3.4-3.4c-0.2-0.2-0.2-0.6-0.2-0.8C21.9,21.3,22.2,21.2,22.4,21z"/>
	<path class="st1" d="M51.9,25.9c-0.2-0.2-0.5-0.3-0.6-0.5c-0.2-0.3-0.1-0.6,0.2-0.9c0.7-0.7,1.5-1.5,2.2-2.2
		c0.4-0.4,0.7-0.8,1.1-1.1c0.4-0.3,0.8-0.4,1.1-0.1c0.3,0.3,0.3,0.7,0,1.1c-1.1,1.1-2.2,2.2-3.3,3.3C52.4,25.7,52.2,25.8,51.9,25.9z
		"/>
	<path class="st1" d="M56.4,54.6c-0.2,0.2-0.3,0.5-0.5,0.6c-0.3,0.2-0.6,0.1-0.9-0.2c-0.8-0.8-1.6-1.6-2.4-2.4
		c-0.3-0.3-0.6-0.6-1-0.9c-0.3-0.3-0.3-0.7-0.1-1c0.3-0.3,0.7-0.3,1.1,0c1.1,1.1,2.3,2.2,3.4,3.3C56.1,54.1,56.2,54.3,56.4,54.6z"/>
</g>
</svg>
