<?xml version="1.0" encoding="utf-8"?>
<!-- Generator: Adobe Illustrator 28.2.0, SVG Export Plug-In . SVG Version: 6.00 Build 0)  -->
<svg version="1.1" id="Capa_1" xmlns="http://www.w3.org/2000/svg" xmlns:xlink="http://www.w3.org/1999/xlink" x="0px" y="0px"
	 viewBox="0 0 79.2 169.1" style="enable-background:new 0 0 79.2 169.1;" xml:space="preserve">
<style type="text/css">
	.st0{fill:#0C2842;}
	.st1{fill:#1C4354;}
	.st2{fill:#2C2C2C;}
	.st3{fill:#FFC08C;}
	.st4{fill:#C8D7DE;}
	.st5{fill:#C68A78;}
	.st6{fill:#FFFFFF;}
	.st7{fill:#222223;}
	.st8{fill:#262626;}
</style>
<g id="_x32_8">
	<path class="st0" d="M20.8,134.3c0,0,22.1,14.8,38.3,34.7c0-17.3-0.1-38.6-0.2-60.2L20.8,134.3z"/>
	<path class="st1" d="M10.6,71.4c4.7-4.8,9.5-7.3,15.5-10.5c8.4-3.9,16.8-7.9,25.4-12.1c2.5-1.3,5.1-2.5,7.6-3.8v16.9l-6.3,22.9
		c0,0,12.9,4.5,12.9,4.5c-0.8,1.5-0.2,5.2-0.3,6.8c-0.2,4.4-0.4,8.7-0.7,13.1c-0.7,10.9-5.8,18.3-11.9,27.4
		c-3.7,5.6-6.5,12-12.1,16.1c-16.2,11.9-32.8-27.3-37.8-36.1c0-0.1-0.1-0.1-0.1-0.2c-0.9-6.9-2.4-14.1-2.7-21
		C-0.3,87.9,5.6,76.6,10.6,71.4z"/>
	<path class="st0" d="M47.8,89.2c1.9-0.6-14.1,23-16.5,37.3c-0.5-7-3.6-10.6-2-10.3c1.5,0.4-9.8-17.2-8.3-17.6
		c1.5-0.4,10.4,14.3,10.4,14.3S38.7,92.3,47.8,89.2z"/>
	<g>
		<path class="st2" d="M18.4,61.7c-0.8,2.3,0,4.9,1.5,6.8c3.6,4.5,10.6,3.9,15.8,3.5c2.2-0.2,4.2-0.4,6.2-0.8
			c4.9-1,9.2-3.1,12.8-7.1c1.4-1.6,3.6-4.3,3.8-6.5c0.1-1.2-0.1-3.1-0.7-4.5c-0.3-0.7-0.8-1.3-1.4-1.7c-0.2-0.1-1-0.3-1.9-0.4
			c-1.3-0.2-2.8-0.5-3.3-0.6c-0.1,0-0.2,0-0.2,0c1.5-2.2,0.1-3.7-0.6-5.8c0,0,0-0.1,0-0.1c-0.2-0.6-0.3-1.1-0.3-1.6
			c-0.5-4.1,2.4-7.4,2.2-11.4c-0.2-3.6-0.7-7.4-1.5-10.9c-1.6-7-5.4-14.7-12.4-17.9C35.1,1.1,31.6,0.2,28.1,0
			c-2.3-0.1-4.2,0.5-6.2,0.9c-1.9,0.6-3.9,1.1-5.8,2.3c-4.6,2.9-7.1,5-8.8,10C5.3,19,6.7,25.7,6.2,31.5c-0.5,6.3,5.9,11.5,10.3,16
			c0.6,0.6,1.2,1.2,1.8,1.8c0.3,0.3,0.6,0.6,0.8,1c0,0,0.1,0.1,0.1,0.1c0.2,0.2,0.3,0.5,0.5,0.7c0.1,0.3,0.2,0.6,0.3,0.9
			c0.1,0.5,0.2,1,0.3,1.4c0.3,1,1,1.7,1.4,2.7c0.2,0.5,0.2,1,0,1.4c-0.4,0.9-1.3,1.5-2.1,2.2c-0.2,0.1-0.3,0.3-0.4,0.4
			C18.9,60.6,18.6,61.2,18.4,61.7z"/>
		<path class="st3" d="M16.3,27.1c1.4-0.7,3.1-0.8,4.7-0.9c2.6-0.2,5.1-0.7,7.6-1.4c2.5-0.6,4.9-1.4,7.3-2.5
			c1.4-0.6,2.9-1.4,4.5-1.5c1.6-0.1,2.7,0.4,3.4,1.2c1.2,1.3-0.2,4.3-2,5.9c-2.8,2.5-5.5,0.3-11.4,1.8c-6.3,1.6-7.5,5.1-11.5,4.3
			c-2.4-0.5-5.1-2.4-4.8-4.1C14.2,28.7,14.9,27.8,16.3,27.1z"/>
		<path class="st3" d="M30.7,43.1c0.1,0.2,0.1,0.3,0.2,0.5c0.7,1.7,2.4,2.7,3.9,2.3c1.5-0.4,2.4-2.1,2.1-3.9c0-0.2-0.1-0.3-0.1-0.5
			c-0.1-0.3-0.2-0.6-0.3-0.9c-0.8-1.5-2.3-2.3-3.7-2c-1.4,0.4-2.3,1.9-2.2,3.5C30.5,42.5,30.6,42.8,30.7,43.1z"/>
		<g>
			<g>
				<g>
					<path class="st4" d="M32.5,26.5c0,0,2.7,1.6,5.2,1c2.5-0.7,3.7-4.3,3.7-4.3s-2.4-0.8-4.9-0.1C34,23.8,32.5,26.5,32.5,26.5z"/>
					<path class="st2" d="M35.5,25.6c0.2,0.8,1.1,1.2,2,1c0.9-0.2,1.4-1,1.2-1.8c-0.2-0.8-1.1-1.2-2-1C35.8,24,35.3,24.8,35.5,25.6z
						"/>
				</g>
				<path class="st5" d="M41.5,23.2c0,0-5.4,0.2-8.9,3.3C33,23.9,38.6,21.6,41.5,23.2z"/>
			</g>
			<path class="st6" d="M35.2,25.8c0.1,0.5,0.6,0.7,1.1,0.6c0.5-0.1,0.8-0.6,0.6-1.1c-0.1-0.5-0.6-0.7-1.1-0.6
				C35.4,24.8,35.1,25.3,35.2,25.8z"/>
		</g>
		<g>
			<g>
				<g>
					<path class="st4" d="M27.1,27.8c0,0-1.4,2.7-4,3.4c-2.5,0.7-5.4-1.8-5.4-1.8s1.7-1.8,4.2-2.5C24.4,26.2,27.1,27.8,27.1,27.8z"
						/>
					<path class="st2" d="M24,28.5c0.2,0.8-0.3,1.6-1.2,1.8c-0.9,0.2-1.7-0.2-2-1c-0.2-0.8,0.3-1.6,1.2-1.8
						C22.9,27.2,23.8,27.7,24,28.5z"/>
				</g>
				<path class="st5" d="M17.7,29.3c0,0,4.8-2.5,9.4-1.5C25.3,25.7,19.3,26.5,17.7,29.3z"/>
			</g>
			<path class="st6" d="M20.7,29.4c0.1,0.5,0.6,0.7,1.1,0.6c0.5-0.1,0.8-0.6,0.6-1.1c-0.1-0.5-0.6-0.7-1.1-0.6
				C20.9,28.4,20.6,28.9,20.7,29.4z"/>
		</g>
		<path class="st5" d="M30.7,43.1c0.1,0.2,0.1,0.3,0.2,0.5l6.1-1.6c0-0.2-0.1-0.3-0.1-0.5c-0.1-0.3-0.2-0.6-0.3-0.9l-5.9,1.6
			C30.5,42.5,30.6,42.8,30.7,43.1z"/>
		<path class="st7" d="M54.4,51c-1.3-0.2-2.8-0.5-3.3-0.6c-3,2.8-13.6,9.2-24.7,10C32.6,62.7,44.7,59.7,54.4,51z"/>
		<path class="st7" d="M19.2,50.3c0,0,0.1,0.1,0.1,0.1c0.2,0.2,0.3,0.5,0.5,0.7c0.1,0.3,0.2,0.6,0.3,0.9c0.1,0.5,0.2,1,0.3,1.4
			c0,0,0,0,0,0c6.8,6,20.6,2.7,22.5-0.3C33.4,58.2,22.2,52.9,19.2,50.3z"/>
		<path class="st7" d="M18.4,61.7C27.2,74.6,46,67.2,48,64.9c-18.1,7.3-26.2-2.2-28.3-5.2c-0.2,0.1-0.3,0.3-0.4,0.4
			C18.9,60.6,18.6,61.2,18.4,61.7z"/>
	</g>
	<path class="st8" d="M63.2,61.3c1.9-1.8,3.9-5.3,7-4.8c1.9,0.3,4.5,2.9,5.6,4.3c0.9,1.1,1.8,2.3,2.8,3.4c0.4,0.5,0.4,1.1,0.2,1.6
		l-0.3,0.5c-0.3,0.6-1,0.8-1.5,0.5l-5.2-2.6L78,69c0.7,0.5,1.1,1.4,1.1,2.2c0,1-0.9,1.8-1.9,1.8h-1.4c0,0-5.7-3.2-5.7-3.2
		c1.6,0.9,9.3,3.9,6.5,6.3c-2.4,2-6.9-3.5-8.1,0.4C68,78.3,69,80.2,68.3,82c-0.6,1.7-1.8,3.1-1.9,4.9c-0.3,3.7-0.1,7.5-0.2,11.2
		c-6.4-3.2-13.1-5.8-20.1-7.6c1.2,0.3,4.5-4.6,5-5.7c1.2-2.2,1.4-4,1-6.5c-1.3-6.8-1.8-13.6,2.2-19.8c1.1-1.7,2.4-3.1,3.4-4.9
		c0.4-0.7,0.9-2.4,1.6-2.9c0,0,7.1-5.6,7.1-5.6c1.1-0.9,2.9-0.8,3.8,0.3c0.5,0.6,0.6,1.5-0.5,2.5c-2.6,2.5-6.5,7.4-6.5,7.4
		L63.2,61.3z"/>
</g>
</svg>
