<?xml version="1.0" encoding="utf-8"?>
<!-- Generator: Adobe Illustrator 28.2.0, SVG Export Plug-In . SVG Version: 6.00 Build 0)  -->
<svg version="1.1" id="Capa_1" xmlns="http://www.w3.org/2000/svg" xmlns:xlink="http://www.w3.org/1999/xlink" x="0px" y="0px"
	 viewBox="0 0 33.2 27.8" style="enable-background:new 0 0 33.2 27.8;" xml:space="preserve">
<style type="text/css">
	.st0{opacity:0.75;}
	.st1{fill:none;stroke:#999999;stroke-width:2;stroke-miterlimit:10;}
	.st2{fill:#07355A;}
</style>
<g class="st0">
	<rect x="1" y="1" class="st1" width="25.8" height="25.8"/>
	<g>
		<path class="st2" d="M5,10.4c0.2-0.3,0.4-0.6,0.6-0.8c0.6-0.7,1.3-1.3,1.9-1.9C8.2,7,8.8,7,9.4,7.6c2.1,2.1,4.2,4.2,6.3,6.4
			c0.1,0.1,0.1,0.2,0.3,0.3c0.1-0.1,0.1-0.2,0.2-0.3c4.2-4.2,8.4-8.4,12.6-12.6C29.2,1,29.6,0.8,30.1,1c0.2,0.1,0.4,0.2,0.5,0.4
			C31.3,2,32,2.7,32.7,3.4c0.6,0.6,0.6,1.2,0,1.9c-3.4,3.4-6.8,6.8-10.2,10.2c-1.9,1.9-3.8,3.8-5.7,5.7c-0.4,0.4-0.7,0.5-1.2,0.4
			c-0.2-0.1-0.4-0.2-0.5-0.3c-3.2-3.2-6.5-6.5-9.7-9.8c-0.2-0.2-0.3-0.4-0.4-0.6C5,10.7,5,10.5,5,10.4z"/>
	</g>
</g>
</svg>
