<?xml version="1.0" encoding="utf-8"?>
<!-- Generator: Adobe Illustrator 28.2.0, SVG Export Plug-In . SVG Version: 6.00 Build 0)  -->
<svg version="1.1" id="Capa_1" xmlns="http://www.w3.org/2000/svg" xmlns:xlink="http://www.w3.org/1999/xlink" x="0px" y="0px"
	 viewBox="0 0 80 80" style="enable-background:new 0 0 80 80;" xml:space="preserve">
<style type="text/css">
	.st0{fill:#07355A;}
	.st1{fill:#FFFFFF;}
</style>
<g>
	<g>
		<circle class="st0" cx="40" cy="40" r="40"/>
	</g>
	<path class="st1" d="M61.8,54.3c0,0.7,0,1.4,0,2.1c-0.2,0.4-0.5,0.7-1,0.6c-0.5-0.1-0.6-0.5-0.6-1c0-0.4,0-0.8,0-1.2
		c-0.1-1.7-0.7-3.2-1.9-4.4c-0.9,1.2-1.6,1.4-3,0.8c-1.4-0.6-2.9-1.1-4.3-1.7c-0.8-0.3-1.5-0.6-1.7-1.5c-1.2,1.2-2.4,2.3-3.6,3.4
		c-0.4,0.3-0.8,0.6-1.3,0.6c-0.1,0-0.3,0.2-0.4,0.3c-0.1,0.2-0.1,0.5-0.1,0.7c0.1,2.1,0.3,4.2,0.5,6.3c0.1,1.2,0.2,2.4,0.3,3.6
		c3.1,0,6.1,0,9.2,0c0-0.2,0-0.4,0-0.6c0-2.2,0-4.4,0-6.5c0-0.5,0-1.1,0-1.6c0-0.5,0.3-0.8,0.8-0.8c0.5,0,0.7,0.3,0.7,0.8
		c0,0.2,0,0.3,0,0.5c0,2.6,0,5.1,0,7.7c0,0.2,0,0.4,0,0.6c1.5,0,2.9,0,4.3,0c0.5,0,0.6-0.3,0.6-0.7c0-0.7,0-1.4,0-2.2
		c0-0.3,0.2-0.6,0.4-0.7c0.4-0.3,0.8-0.1,1.2,0.5c0,0.9,0,1.9,0,2.8c-0.2,1-0.8,1.6-1.8,1.9c-12.6,0-25.2,0-37.8,0
		c-1-0.3-1.6-0.9-1.8-1.9c0-2.8,0-5.6,0-8.3c0-0.1,0.1-0.2,0.1-0.4c0.2-1.9,1.1-3.5,2.5-4.8c0.3-0.3,0.3-0.5,0.2-0.8
		c-0.4-1.1,0-2.2,1.1-2.6c1.8-0.7,3.6-1.4,5.3-2.1c0.8-0.3,1.7-0.1,2.2,0.6c0.2,0.2,0.3,0.4,0.4,0.7c0.7-0.3,1.5-0.6,2.2-0.8
		c0.5-0.2,1.2-0.3,1.4-0.7c0.3-0.4,0.1-1,0.1-1.6c0-0.2-0.1-0.5-0.3-0.7c-1.5-1.3-2.5-2.9-2.9-4.8c-0.1-0.6-0.2-1.3-0.3-1.9
		c-0.2,0-0.4,0-0.5,0c-1.5,0-2.7-0.7-3.4-2.1c-0.7-1.4-0.4-2.7,0.5-3.9c0.1-0.1,0.1-0.4,0.1-0.5c-0.1-0.6-0.3-1.2-0.3-1.7
		c0-1.2,0.1-2.5,0.1-3.7c0-0.3-0.1-0.6-0.3-0.8c-0.5-0.6-1-1.1-1.5-1.6c-1.4-1.5-1-3.4,0.9-4.3c0.6-0.3,1.3-0.6,1.9-0.9
		c3.4-1.4,6.6-3.4,10.2-4.2c0.6,0,1.3,0,1.9,0c0.2,0.1,0.4,0.1,0.7,0.2c1.5,0.6,2.9,1.1,4.3,1.7c0.6,0.2,0.8,0.7,0.5,1.1
		c-0.2,0.4-0.6,0.5-1.2,0.3c-0.9-0.4-1.7-0.8-2.5-1.1c-1.8-0.8-3.7-0.8-5.5,0c-3.2,1.4-6.5,2.9-9.7,4.4c-0.8,0.4-1,1.1-0.4,1.8
		c0.5,0.5,1,1.1,1.5,1.6c0.2,0.2,0.5,0.3,0.8,0.3c2.4,0,4.9,0,7.3,0c0.1,0,0.3,0,0.4,0c-0.1-0.4-0.2-0.7-0.3-1c0-0.3,0-0.7,0-1
		c0-1.8,1.3-3.1,3.1-3.1c1.7,0,3.1,1.4,3,3.2c0,0.6-0.1,1.3-0.2,2c0,0,0,0,0.1,0c2.6,0,5.2,0,7.8,0c0.2,0,0.4-0.1,0.5-0.3
		c0.5-0.5,1-1.1,1.5-1.6c0.7-0.8,0.6-1.4-0.4-1.9c-1.1-0.5-2.3-1-3.4-1.6c-0.6-0.3-0.7-0.6-0.5-1.1c0.2-0.5,0.6-0.6,1.2-0.4
		c1.2,0.5,2.4,1.1,3.5,1.6c1.8,0.8,2.1,2.8,0.8,4.2c-0.5,0.6-1.1,1.1-1.6,1.7c-0.1,0.1-0.3,0.3-0.3,0.5c0,1.2,0.1,2.5,0.1,3.7
		c0,0.6-0.1,1.3-0.3,1.9C53,28,53,28.2,53.2,28.4c1.8,2.1,0.6,5.3-2.2,5.8c-0.4,0.1-0.9,0.1-1.3,0.1c0,0.2,0,0.3,0,0.5
		c-0.1,2.1-0.8,4.1-2.4,5.5c-0.9,0.8-1.2,1.6-1,2.7c0,0.1,0,0.1,0,0.2c0.1,0.1,0.1,0.3,0.2,0.3c1.2,0.5,2.3,0.9,3.5,1.4
		c0.9-1.5,1.6-1.7,3.2-1.1c1.6,0.6,3.1,1.2,4.7,1.8c1.2,0.5,1.7,1.5,1.2,2.7c-0.1,0.3-0.1,0.5,0.2,0.7c1.2,1.1,1.9,2.4,2.3,3.9
		C61.6,53.4,61.7,53.9,61.8,54.3z M28.6,62.9c3.1,0,6.1,0,9.2,0c0.3-3.4,0.5-6.8,0.7-10.1c0-0.3-0.1-0.6-0.2-0.8
		c-0.8,0.1-1.3-0.2-1.8-0.7c-0.4-0.4-0.7-0.7-1.1-1c-0.8-0.7-1.6-1.4-2.2-2.1c-0.5,0.4-0.9,0.9-1.4,1.1c-1.7,0.7-3.5,1.4-5.3,2.1
		c-0.9,0.3-1.8,0.1-2.3-0.7c-0.1-0.1-0.1-0.2-0.2-0.3c-1,1-1.7,2.2-1.8,3.5c-0.1,2.8-0.1,5.6-0.1,8.4c0,0.4,0.2,0.6,0.6,0.6
		c1.4,0,2.8,0,4.3,0c0-0.2,0-0.5,0-0.7c0-2.7,0-5.3,0-8c0-0.7,0.3-1,0.8-1c0.5,0,0.8,0.3,0.8,1c0,0.3,0,0.6,0,0.9
		C28.6,57.8,28.6,60.3,28.6,62.9z M34.2,31.4c0,1.1,0,2.2,0,3.3c0.1,3.4,2.6,6.2,5.9,6.7c3.5,0.5,6.7-1.5,7.7-4.8
		c0.5-1.7,0.2-3.4,0.3-5.2C43.4,32.7,38.8,32.7,34.2,31.4z M30.5,26.3c-0.1,0.6,0.1,1.1,0.5,1.4c0.7,0.6,1.3,1.1,2.1,1.5
		c1.9,1,4.1,1.4,6.2,1.5c3.2,0.2,6.3-0.1,9.3-1.3c1-0.4,1.9-0.9,2.6-1.8c0.3-0.4,0.6-0.8,0.5-1.4C44.7,26.3,37.6,26.3,30.5,26.3z
		 M51.7,22.4c-7,0-14,0-21,0c0,0.8,0,1.5,0,2.2c7,0,14,0,21,0C51.7,23.9,51.7,23.2,51.7,22.4z M42.9,62.9c-0.2-3.2-0.5-6.4-0.7-9.7
		c-0.7,0-1.4,0-2.1,0c-0.2,3.2-0.5,6.4-0.7,9.7C40.6,62.9,41.7,62.9,42.9,62.9z M37.7,42.3c-0.1,0.7-0.2,1.3-0.3,1.9
		c0,0.1,0.1,0.2,0.2,0.3c1,1,2.1,2,3.2,3c0.2,0.2,0.4,0.2,0.7,0c1-1,2.1-1.9,3.1-2.9c0.1-0.1,0.2-0.2,0.2-0.3
		c-0.1-0.6-0.2-1.3-0.3-1.9C42.3,43.2,40,43.2,37.7,42.3z M57.7,47.5c-0.1-0.1-0.2-0.3-0.4-0.4c-1.7-0.7-3.4-1.3-5.1-2
		c-0.3-0.1-0.6,0-0.7,0.3c-0.2,0.6-0.4,1.1-0.7,1.7c-0.1,0.4,0,0.6,0.3,0.7c1.7,0.7,3.4,1.3,5.1,2c0.2,0.1,0.5,0,0.6-0.1
		C57.1,49,57.4,48.3,57.7,47.5z M24.6,47.5c0.3,0.8,0.6,1.5,0.9,2.2c0.1,0.1,0.4,0.2,0.5,0.1c1.7-0.6,3.4-1.3,5.1-2
		c0.3-0.1,0.4-0.3,0.3-0.7c-0.2-0.6-0.5-1.2-0.7-1.8c-0.1-0.3-0.4-0.4-0.7-0.3c-1.7,0.7-3.4,1.3-5.1,2
		C24.8,47.2,24.7,47.4,24.6,47.5z M39.6,48.5c-1.2-1.1-2.3-2.1-3.4-3.2c-0.1-0.1-0.3-0.2-0.4-0.1c-0.8,0.3-1.6,0.6-2.4,0.9
		c1.5,1.4,3,2.8,4.5,4.2C38.5,49.8,39.1,49.2,39.6,48.5z M44.4,50.4c1.5-1.4,3-2.8,4.5-4.2c-0.8-0.3-1.6-0.6-2.4-0.9
		c-0.1,0-0.4,0-0.5,0.1c-0.6,0.5-1.1,1-1.7,1.6c-0.6,0.5-1.1,1-1.7,1.6C43.2,49.2,43.8,49.8,44.4,50.4z M39.7,19
		c-0.1,1.4,1,2,1.9,1.8c0.7-0.2,1.1-0.8,1.1-1.9c0-0.8-0.5-1.5-1.2-1.6C40.4,17.1,39.7,17.8,39.7,19z M30.4,29.4
		c-0.6,0.7-0.7,1.6-0.3,2.4c0.5,0.8,1.4,1.2,2.5,0.9c0-0.6,0-1.1,0-1.7c0-0.1-0.1-0.3-0.2-0.4C31.7,30.2,31,29.8,30.4,29.4z
		 M49.7,32.7c1.4,0.1,2.3-0.3,2.6-1.3c0.3-0.8,0.1-1.6-0.4-2c-0.7,0.4-1.3,0.8-1.9,1.2c-0.1,0.1-0.2,0.2-0.2,0.3
		C49.7,31.5,49.7,32.1,49.7,32.7z M41.1,49.2c-0.4,0.5-0.9,1-1.3,1.4c-0.2,0.2-0.2,0.4-0.1,0.6c0.1,0.1,0.3,0.3,0.5,0.3
		c0.6,0,1.2,0,1.8,0c0.2,0,0.4-0.2,0.5-0.3c0.2-0.2,0.2-0.4-0.1-0.6C42,50.2,41.6,49.7,41.1,49.2z"/>
</g>
</svg>
