<?xml version="1.0" encoding="utf-8"?>
<!-- Generator: Adobe Illustrator 28.2.0, SVG Export Plug-In . SVG Version: 6.00 Build 0)  -->
<svg version="1.1" id="Capa_1" xmlns="http://www.w3.org/2000/svg" xmlns:xlink="http://www.w3.org/1999/xlink" x="0px" y="0px"
	 viewBox="0 0 45 45" style="enable-background:new 0 0 45 45;" xml:space="preserve">
<style type="text/css">
	.st0{fill:#07355A;}
</style>
<g>
	<g>
		<g>
			<path class="st0" d="M17.3,12.7c0,2.4-2,4.4-4.4,4.4c-2.4,0-4.4-1.9-4.4-4.4c0-2.4,1.9-4.4,4.4-4.4C15.3,8.4,17.3,10.3,17.3,12.7
				z M9.4,12.8c0,1.9,1.6,3.5,3.5,3.5c1.9,0,3.5-1.6,3.5-3.5c0-2-1.6-3.5-3.5-3.5C10.9,9.2,9.4,10.8,9.4,12.8z"/>
		</g>
		<g>
			<path class="st0" d="M17.3,22.9c0,2.4-2,4.4-4.4,4.4c-2.4,0-4.4-2-4.4-4.4c0-2.4,2-4.4,4.4-4.4C15.4,18.5,17.3,20.4,17.3,22.9z
				 M12.9,26.4c1.9,0,3.5-1.5,3.6-3.5c0-1.9-1.5-3.5-3.5-3.6c-2,0-3.6,1.5-3.6,3.5C9.3,24.8,10.9,26.4,12.9,26.4z"/>
		</g>
		<g>
			<path class="st0" d="M17.3,33c0,2.4-2,4.4-4.4,4.4c-2.4,0-4.4-2-4.4-4.4c0-2.4,2-4.4,4.4-4.4C15.4,28.6,17.3,30.5,17.3,33z
				 M12.9,29.4C11,29.4,9.4,31,9.4,33c0,1.9,1.6,3.5,3.5,3.5c2,0,3.6-1.6,3.5-3.5C16.4,31,14.8,29.4,12.9,29.4z"/>
		</g>
		<g>
			<path class="st0" d="M28.3,32.3c-2.8,0-5.7,0-8.5,0c-0.1,0-0.2,0-0.3,0c-0.2,0-0.4-0.2-0.4-0.4c0-0.2,0.1-0.4,0.3-0.5
				c0.1,0,0.2,0,0.3,0c5.7,0,11.4,0,17.2,0c0.4,0,0.6,0.1,0.6,0.4c0,0.2-0.1,0.4-0.4,0.5c-0.1,0-0.2,0-0.3,0
				C34,32.3,31.1,32.3,28.3,32.3z"/>
		</g>
		<g>
			<path class="st0" d="M28.3,12.1c-2.8,0-5.7,0-8.5,0c-0.1,0-0.2,0-0.3,0c-0.2,0-0.4-0.2-0.4-0.4c0-0.2,0.1-0.4,0.3-0.4
				c0.1,0,0.2,0,0.3,0c5.7,0,11.4,0,17.1,0c0.1,0,0.2,0,0.3,0c0.3,0,0.4,0.2,0.4,0.4c0,0.3-0.1,0.4-0.4,0.5c-0.1,0-0.2,0-0.3,0
				C34,12.1,31.1,12.1,28.3,12.1z"/>
		</g>
		<g>
			<path class="st0" d="M28.3,22.2c-2.8,0-5.7,0-8.5,0c-0.1,0-0.2,0-0.3,0c-0.2,0-0.4-0.2-0.4-0.4c0-0.2,0.1-0.4,0.4-0.4
				c0.1,0,0.2,0,0.3,0c5.7,0,11.4,0,17.1,0c0.1,0,0.2,0,0.3,0c0.3,0,0.4,0.2,0.4,0.4c0,0.2-0.2,0.4-0.4,0.4c-0.1,0-0.2,0-0.3,0
				C34,22.2,31.1,22.2,28.3,22.2z"/>
		</g>
		<g>
			<path class="st0" d="M26.1,24.4c-2.1,0-4.2,0-6.3,0c-0.1,0-0.2,0-0.3,0c-0.2,0-0.4-0.2-0.4-0.4c0-0.2,0.1-0.4,0.4-0.5
				c0.1,0,0.2,0,0.3,0c4.3,0,8.6,0,12.9,0c0.1,0,0.3,0,0.4,0.1c0.1,0.1,0.2,0.3,0.1,0.4c0,0.1-0.2,0.3-0.3,0.3c-0.1,0.1-0.2,0-0.3,0
				C30.3,24.4,28.2,24.4,26.1,24.4z"/>
		</g>
		<g>
			<path class="st0" d="M26.1,14.3c-2.1,0-4.2,0-6.3,0c-0.1,0-0.2,0-0.3,0c-0.3,0-0.4-0.2-0.4-0.4c0-0.2,0.1-0.4,0.4-0.5
				c0.1,0,0.2,0,0.2,0c4.3,0,8.6,0,12.8,0c0.1,0,0.2,0,0.3,0c0.2,0,0.4,0.2,0.4,0.5c0,0.2-0.1,0.4-0.4,0.4c-0.1,0-0.2,0-0.3,0
				C30.3,14.3,28.2,14.3,26.1,14.3z"/>
		</g>
		<g>
			<path class="st0" d="M26.1,34.6c-2.1,0-4.2,0-6.3,0c-0.1,0-0.2,0-0.3,0c-0.2,0-0.4-0.2-0.4-0.4c0-0.2,0.1-0.4,0.4-0.4
				c0.1,0,0.2,0,0.3,0c4.2,0,8.5,0,12.7,0c0.1,0,0.2,0,0.3,0c0.2,0.1,0.4,0.2,0.3,0.5c0,0.2-0.2,0.4-0.4,0.4c-0.1,0-0.2,0-0.3,0
				C30.4,34.6,28.2,34.6,26.1,34.6z"/>
		</g>
		<g>
			<path class="st0" d="M12.9,15c-0.6,0-1.1-0.2-1.6-0.6c-0.2-0.1-0.2-0.4-0.1-0.6c0.1-0.2,0.4-0.2,0.7-0.1c0.2,0.1,0.5,0.3,0.7,0.4
				c0.5,0.1,0.9-0.1,1.2-0.3c0.2-0.1,0.4-0.2,0.6,0c0.1,0.1,0.2,0.3,0.2,0.4c0,0.1-0.1,0.2-0.2,0.3C14,14.7,13.5,15,12.9,15z"/>
		</g>
		<g>
			<path class="st0" d="M11.5,11.9c-0.2,0-0.3,0-0.5,0c-0.2,0-0.4-0.2-0.4-0.4c0-0.2,0.1-0.4,0.3-0.5c0.3,0,0.6,0,1,0
				c0.3,0,0.4,0.2,0.4,0.4c0,0.2-0.1,0.4-0.4,0.4C11.8,11.9,11.7,11.9,11.5,11.9C11.5,11.9,11.5,11.9,11.5,11.9z"/>
		</g>
		<g>
			<path class="st0" d="M14.3,11.9c-0.1,0-0.3,0-0.4,0c-0.3,0-0.4-0.2-0.4-0.4c0-0.2,0.1-0.4,0.4-0.4c0.3,0,0.6,0,0.9,0
				c0.2,0,0.4,0.2,0.4,0.4c0,0.2-0.1,0.4-0.4,0.4C14.6,12,14.4,11.9,14.3,11.9C14.3,11.9,14.3,11.9,14.3,11.9z"/>
		</g>
		<g>
			<path class="st0" d="M12.9,24.6c-0.4,0-0.8,0-1.2,0c-0.3,0-0.5-0.2-0.5-0.5c0-0.3,0.2-0.4,0.5-0.4c0.8,0,1.6,0,2.4,0
				c0.3,0,0.5,0.2,0.5,0.5c0,0.3-0.2,0.4-0.5,0.4C13.7,24.6,13.3,24.6,12.9,24.6z"/>
		</g>
		<g>
			<path class="st0" d="M14.2,22.1c-0.1,0-0.3,0-0.4,0c-0.3,0-0.4-0.2-0.4-0.4c0-0.2,0.1-0.4,0.4-0.5c0.3,0,0.6,0,0.9,0
				c0.2,0,0.4,0.2,0.4,0.5c0,0.2-0.2,0.4-0.4,0.4C14.6,22.1,14.4,22.1,14.2,22.1C14.2,22.1,14.2,22.1,14.2,22.1z"/>
		</g>
		<g>
			<path class="st0" d="M11.5,22c-0.1,0-0.3,0-0.4,0c-0.2,0-0.4-0.2-0.4-0.4c0-0.2,0.1-0.4,0.4-0.5c0.3,0,0.6,0,0.9,0
				c0.2,0,0.4,0.2,0.4,0.5c0,0.2-0.1,0.4-0.4,0.4C11.8,22.1,11.7,22,11.5,22z"/>
		</g>
		<g>
			<path class="st0" d="M12.9,33.8c0.6,0,1.1,0.2,1.5,0.5c0.2,0.2,0.3,0.5,0.1,0.7c-0.2,0.2-0.4,0.3-0.7,0.1c-0.6-0.5-1.3-0.5-1.9,0
				c-0.2,0.2-0.5,0.1-0.7-0.1c-0.1-0.2-0.1-0.5,0.2-0.7C11.9,34,12.4,33.8,12.9,33.8z"/>
		</g>
		<g>
			<path class="st0" d="M14.3,32.2c-0.1,0-0.3,0-0.4,0c-0.2,0-0.4-0.2-0.4-0.4c0-0.2,0.1-0.4,0.4-0.5c0.3,0,0.6,0,1,0
				c0.2,0,0.4,0.2,0.4,0.4c0,0.2-0.1,0.4-0.4,0.4C14.6,32.2,14.4,32.2,14.3,32.2C14.3,32.2,14.3,32.2,14.3,32.2z"/>
		</g>
		<g>
			<path class="st0" d="M11.5,32.2c-0.1,0-0.3,0-0.4,0c-0.2,0-0.4-0.2-0.4-0.4c0-0.2,0.1-0.4,0.3-0.5c0.3,0,0.6,0,1,0
				c0.3,0,0.4,0.2,0.4,0.5c0,0.2-0.1,0.4-0.4,0.4C11.8,32.2,11.6,32.2,11.5,32.2C11.5,32.2,11.5,32.2,11.5,32.2z"/>
		</g>
	</g>
	<g>
		<g>
			<path class="st0" d="M22.5,1C34.4,1,44,10.6,44,22.5S34.4,44,22.5,44S1,34.4,1,22.5S10.6,1,22.5,1 M22.5,0C10.1,0,0,10.1,0,22.5
				C0,34.9,10.1,45,22.5,45S45,34.9,45,22.5C45,10.1,34.9,0,22.5,0L22.5,0z"/>
		</g>
	</g>
</g>
</svg>
