<?xml version="1.0" encoding="utf-8"?>
<!-- Generator: Adobe Illustrator 28.2.0, SVG Export Plug-In . SVG Version: 6.00 Build 0)  -->
<svg version="1.1" id="Capa_1" xmlns="http://www.w3.org/2000/svg" xmlns:xlink="http://www.w3.org/1999/xlink" x="0px" y="0px"
	 viewBox="0 0 80 80" style="enable-background:new 0 0 80 80;" xml:space="preserve">
<style type="text/css">
	.st0{fill:#07355A;}
	.st1{fill:#FFFFFF;}
</style>
<rect x="190.9" y="77.9" style="fill:none;" width="5" height="0"/>
<g>
	<circle class="st0" cx="40" cy="40" r="40"/>
</g>
<g>
	<path class="st1" d="M39.7,13c0.9,0.2,1.8,0.3,2.6,0.5c3.3,0.8,6.1,2.4,8.1,5.2c0.7,0.9,1.1,1.9,1.4,3c0.1,0.2,0.2,0.4,0.3,0.5
		c3,3.1,3,7.4,0,10.4c-0.2,0.2-0.3,0.4-0.1,0.6c0.4,0.5,0.7,1,1.1,1.6c0.1,0.2,0.2,0.5,0.2,0.8c-0.1,0.3-0.4,0.4-0.7,0.4
		c-1.3,0-2.4-0.3-3.4-1.1c-0.2-0.2-0.4-0.2-0.8-0.1c-2,0.6-4.1,0.5-6.1-0.2c-0.2-0.1-0.5-0.1-0.7-0.1c-2.3,0.4-4.7,0.4-7-0.1
		c-0.3-0.1-0.5,0-0.7,0.2c-1.7,1.4-3.6,2.2-5.8,2.1c-0.2,0-0.6-0.2-0.7-0.4c-0.1-0.2,0-0.6,0.2-0.8c0.7-0.9,1.4-1.8,1.9-2.9
		c0-0.1,0.1-0.2,0-0.1c-0.9-0.8-1.8-1.6-2.6-2.5c-3.4-4.1-3.1-9.4,0.9-13.1c2.2-2.1,5-3.2,8-3.7c0.4-0.1,0.8-0.1,1.3-0.2
		C38,13,38.8,13,39.7,13z M29.4,35.4c1.5-0.2,2.8-0.8,3.8-1.9c0.5-0.5,0.9-0.6,1.5-0.4c1.8,0.4,3.5,0.5,5.4,0.3
		c-0.2-0.1-0.3-0.2-0.4-0.3c-3.7-3.1-3.7-8.4,0-11.4c3-2.4,6.4-2.7,9.9-1.2c0.1,0,0.2,0.1,0.4,0.2c-0.2-0.3-0.3-0.5-0.4-0.7
		c-0.9-1.6-2.2-2.8-3.8-3.7c-3.2-1.9-6.7-2.4-10.3-1.8c-2.7,0.5-5.2,1.6-7.2,3.5c-2.8,2.8-3.4,6.7-1.4,10c0.9,1.4,2,2.5,3.4,3.3
		c0.4,0.3,0.6,0.6,0.4,1c-0.3,0.6-0.5,1.2-0.8,1.8C29.9,34.6,29.7,35,29.4,35.4z M51.2,34.6c0,0,0.1-0.1,0.1-0.1
		c-0.2-0.4-0.4-0.7-0.5-1.1c-0.3-0.8-0.3-0.9,0.4-1.5c2.6-2.4,2.7-6.2,0.2-8.8c-2.7-2.7-7.3-3-10.4-0.7c-3.5,2.6-3.5,7.4,0.1,9.9
		c2.3,1.6,4.8,1.9,7.5,1.1c0.4-0.1,0.8-0.1,1.1,0.2C50,34,50.6,34.3,51.2,34.6z"/>
	<path class="st1" d="M62.2,60c-0.3-0.2-0.5-0.5-0.5-0.9c0-1.9,0-3.7,0-5.6c0-1.2-0.5-2.1-1.5-2.5c-0.9-0.4-1.9-0.7-2.9-0.9
		c-2.9-0.6-5.9-0.5-8.8,0.3c-0.7,0.2-1.4,0.6-2,1c-0.7,0.4-1,1.1-1,2c0,1.9,0,3.9,0,5.8c0,0.4-0.1,0.7-0.5,0.9c-0.2,0-0.3,0-0.5,0
		c-0.3-0.3-0.4-0.6-0.4-1c0-1.8,0-3.7,0-5.5c0-1.7,0.7-2.8,2.1-3.6c1.2-0.7,2.5-0.9,3.8-1.2c0.6-0.1,1.1-0.2,1.7-0.2
		c0,0,0-0.1-0.1-0.1c-2.1-1.3-2.8-3.3-2.8-5.6c0-0.4,0.1-0.9,0.2-1.3c0.5-1.8,1.9-3,3.9-3.1c0.7,0,1.5,0,2.1,0.2
		c1.6,0.5,2.5,1.7,2.8,3.3c0.3,1.8,0,3.5-1.1,5c-0.4,0.6-1,1.1-1.6,1.6c0.5,0.1,1,0.1,1.5,0.2c0.9,0.2,1.7,0.3,2.6,0.6
		c1.7,0.5,3,1.5,3.4,3.4c0,2.4,0,4.9,0,7.3C62.7,60,62.4,60,62.2,60z M56.9,43.1c0-0.1,0-0.3,0-0.4c-0.1-1.5-0.8-2.5-2.1-2.9
		c-0.8-0.2-1.7-0.2-2.5,0c-0.9,0.3-1.5,0.8-1.8,1.7c-0.5,1.8-0.3,3.5,1,5c1.2,1.4,3,1.4,4.2,0C56.6,45.5,56.9,44.3,56.9,43.1z"/>
	<path class="st1" d="M33.9,60c-0.3-0.2-0.5-0.5-0.5-0.9c0-1.9,0-3.7,0-5.6c0-1.2-0.5-2.1-1.5-2.5C31,50.6,30,50.3,29,50.1
		c-2.9-0.6-5.9-0.5-8.8,0.3c-0.7,0.2-1.4,0.6-2,1c-0.7,0.4-1,1.1-1,2c0,1.9,0,3.9,0,5.8c0,0.4-0.1,0.7-0.5,0.9c-0.3,0-0.6,0-0.8,0
		c0-2.4,0-4.9,0-7.3c0.5-2,2-3,3.8-3.5c1.2-0.3,2.4-0.5,3.6-0.7c0.1,0,0.1,0,0.2,0c-0.4-0.3-0.8-0.6-1.1-0.9c-1.6-1.6-2-3.6-1.6-5.8
		c0.2-1.4,1-2.5,2.4-3.1c1.4-0.6,2.8-0.6,4.2,0c1.2,0.5,2,1.5,2.2,2.7c0.5,2.1,0.1,4-1.2,5.7c-0.4,0.5-0.9,0.8-1.4,1.3
		c0.8,0.1,1.7,0.3,2.6,0.4c1.1,0.2,2.2,0.5,3.2,1.2c1.2,0.8,1.8,1.9,1.8,3.4c0,1.9,0,3.7,0,5.6c0,0.4-0.1,0.7-0.4,1
		C34.2,60,34.1,60,33.9,60z M25.4,39.6c-1.6,0-2.7,0.7-3.1,2c-0.5,1.8-0.2,3.5,1,4.9c1.2,1.4,3,1.4,4.2,0c1-1.2,1.3-2.5,1.1-4
		C28.4,40.5,27.3,39.6,25.4,39.6z"/>
	<path class="st1" d="M20.4,60c-0.3-0.2-0.5-0.5-0.5-0.9c0-1.4,0-2.8,0-4.2c0-0.1,0-0.2,0-0.3c0.1-0.4,0.3-0.6,0.7-0.5
		c0.4,0,0.6,0.2,0.6,0.6c0,1.6,0,3.1,0,4.7c0,0.2-0.2,0.4-0.3,0.6C20.7,60,20.6,60,20.4,60z"/>
	<path class="st1" d="M58.1,60c-0.3-0.3-0.4-0.6-0.4-1c0-1.4,0-2.7,0-4.1c0-0.5,0.2-0.8,0.6-0.8c0.4,0,0.6,0.3,0.6,0.8
		c0,1.4,0,2.8,0,4.2c0,0.4-0.1,0.7-0.5,0.9C58.4,60,58.3,60,58.1,60z"/>
	<path class="st1" d="M29.9,60c-0.3-0.2-0.4-0.6-0.4-1c0-1.4,0-2.7,0-4.1c0-0.5,0.2-0.8,0.6-0.8c0.4,0,0.6,0.3,0.6,0.8
		c0,1.4,0,2.8,0,4.2c0,0.4-0.1,0.7-0.4,0.9C30.2,60,30,60,29.9,60z"/>
	<path class="st1" d="M48.7,60c-0.3-0.2-0.5-0.5-0.5-0.9c0-1.4,0-2.8,0-4.2c0-0.1,0-0.2,0-0.3c0.1-0.4,0.3-0.6,0.7-0.5
		c0.4,0,0.6,0.2,0.6,0.6c0,1.6,0,3.1,0,4.7c0,0.2-0.2,0.4-0.4,0.6C49,60,48.8,60,48.7,60z"/>
	<path class="st1" d="M37.9,16.2c0.7,0,1,0.2,1,0.6c0,0.5-0.3,0.6-1,0.7c-2.3,0.1-4.4,0.7-6.3,2c-1.5,1.1-2.5,2.5-2.6,4.4
		c0,0.4-0.3,0.7-0.7,0.6c-0.4,0-0.6-0.3-0.6-0.7c0.1-1.9,0.9-3.5,2.3-4.7c1.6-1.4,3.5-2.2,5.5-2.6C36.5,16.4,37.2,16.3,37.9,16.2z"
		/>
	<path class="st1" d="M49.6,27.2c0.3,0,0.6,0,0.8,0c0.4,0,0.6,0.3,0.6,0.6c0,0.3-0.2,0.6-0.6,0.6c-0.6,0-1.2,0-1.7,0
		c-0.4,0-0.6-0.3-0.6-0.6c0-0.3,0.2-0.6,0.6-0.6C49,27.2,49.3,27.2,49.6,27.2C49.6,27.2,49.6,27.2,49.6,27.2z"/>
	<path class="st1" d="M41.8,28.5c-0.3,0-0.6,0-0.8,0c-0.4,0-0.7-0.3-0.6-0.6c0-0.4,0.2-0.6,0.6-0.6c0.6,0,1.1,0,1.7,0
		c0.4,0,0.6,0.3,0.6,0.6c0,0.4-0.2,0.6-0.6,0.6C42.4,28.5,42.1,28.5,41.8,28.5C41.8,28.5,41.8,28.5,41.8,28.5z"/>
	<path class="st1" d="M45.7,27.2c0.3,0,0.5,0,0.8,0c0.4,0,0.7,0.3,0.6,0.6c0,0.4-0.2,0.6-0.6,0.6c-0.5,0-1.1,0-1.6,0
		c-0.4,0-0.6-0.3-0.6-0.6c0-0.4,0.2-0.6,0.6-0.6C45.2,27.2,45.4,27.2,45.7,27.2z"/>
</g>
</svg>
