<?xml version="1.0" encoding="utf-8"?>
<!-- Generator: Adobe Illustrator 28.2.0, SVG Export Plug-In . SVG Version: 6.00 Build 0)  -->
<svg version="1.1" id="Capa_1" xmlns="http://www.w3.org/2000/svg" xmlns:xlink="http://www.w3.org/1999/xlink" x="0px" y="0px"
	 viewBox="0 0 80 80" style="enable-background:new 0 0 80 80;" xml:space="preserve">
<style type="text/css">
	.st0{fill:#FFFFFF;}
	.st1{fill:#07355A;}
</style>
<g>
	<circle class="st0" cx="40" cy="40" r="40"/>
</g>
<g>
	<g>
		<path class="st1" d="M17,41.6c0.1-0.3,0.2-0.6,0.3-0.9c0.4-1,1.1-1.7,2.2-2c-0.3-1.5-0.6-2.9-0.9-4.4c-0.1-0.6-0.2-1.2-0.3-1.8
			c-0.1-0.6,0.2-1,0.7-1.1c0.5,0,0.8,0.3,0.9,0.9c0.4,2,0.8,4,1.1,6c0.1,0.4,0.3,0.6,0.7,0.6c0-0.5,0-1,0-1.5c0-0.7,0.2-1,0.9-1.1
			c4.3-0.6,8.6-1.5,12.7-2.8c2.2-0.7,4.4-1.6,6.4-2.9c0.2-0.1,0.4-0.3,0.6-0.5c3.5-4.6,8.8-6.5,14.4-5.1c0.1,0,0.2,0,0.4,0.1
			c-0.1-0.5-0.2-1-0.3-1.4c-1-4.4-4.2-7.1-8.7-7.3c-1.1-0.1-2.2,0.1-3.3,0.1c-0.3,0-0.6-0.1-0.9-0.2c-4.6-1.8-9.3-2.4-14.2-1.1
			c-3,0.8-5.6,2.1-7.5,4.6c-1.7,2.1-2.4,4.6-2.6,7.2c-0.1,0.7-0.1,1.3-0.1,2c0,0.5-0.3,0.9-0.8,0.9c-0.5,0-0.8-0.3-0.8-0.8
			c0-4.1,0.9-7.9,3.7-11c2.3-2.5,5.2-3.9,8.5-4.6c1.1-0.3,2.3-0.4,3.4-0.6c0.9,0,1.9,0,2.8,0c0.1,0,0.2,0.1,0.3,0.1
			c2.7,0.2,5.3,0.8,7.7,1.8c0.1,0.1,0.3,0.1,0.5,0.1c1.2,0,2.3-0.1,3.5,0C51.4,15,54,16,56,18.1c1.9,2,2.7,4.5,3,7.2
			c0,0.3,0.1,0.5,0.4,0.7c6.8,3.5,9.3,11.5,5.8,18.2c-0.2,0.3-0.2,0.5,0.1,0.7c0.6,0.6,1.2,1.2,1.7,1.7c0.3,0.3,0.4,0.7,0.1,1
			c-0.2,0.2-0.6,0.3-0.9,0.4c-0.2,0-0.4-0.2-0.6-0.4c-0.5-0.5-1.1-1.1-1.4-1.5c-1,1-1.8,1.8-2.7,2.7c-0.1,0,0,0,0.1,0.1
			c2.1,2.1,4.2,4.2,6.3,6.3c0.9,0.9,2,0.9,2.8,0.1c0.8-0.8,0.7-1.9-0.2-2.8c-0.8-0.8-1.5-1.5-2.3-2.3c-0.4-0.4-0.4-0.9-0.1-1.3
			c0.4-0.4,0.8-0.3,1.3,0.1c0.6,0.6,1.1,1.2,1.7,1.7c0.8,0.7,1.4,1.5,1.7,2.6c0,0.4,0,0.8,0,1.2c0,0-0.1,0.1-0.1,0.1
			c-0.5,2.7-4,3.9-6.3,1.5c-2-2.1-4.1-4.2-6.2-6.2c-0.1-0.1-0.3-0.3-0.4-0.4c-2.2,1.2-4.6,1.8-7,1.8c-0.2,0-0.4,0.2-0.6,0.4
			c-1.9,2.6-4.4,4.3-7.5,5c-0.7,0.2-1.4,0.2-2.2,0.3c0,0.2,0,0.5,0,0.8c0.6,0,1.3,0,1.9,0c3.4,0.1,6.2,2.4,7.1,5.7
			c0.3,1.1,0.4,2.1,0.7,3.2c0.1,0.6,0,1-0.5,1.3c-9.1,0-18.2,0-27.3,0c-0.5-0.3-0.7-0.7-0.5-1.3c0.2-1,0.4-1.9,0.6-2.9
			c0.8-3.3,3.2-5.5,6.6-5.9c0.8-0.1,1.6,0,2.4,0c0-0.3,0-0.6,0-0.8c-0.2,0-0.3,0-0.4,0c-5.4-0.6-9.1-3.4-10.9-8.6
			c-0.1-0.2-0.3-0.3-0.5-0.4c-1.9-0.3-3.3-1.3-4.2-3c-0.3-0.6-0.5-1.3-0.7-1.9C17,42.7,17,42.2,17,41.6z M23.5,37.9
			c0,0.1,0,0.2,0,0.3c0,2.3-0.1,4.7,0,7c0.2,5.9,4.8,10.2,10.7,10.2c2.7,0,5.4,0,8.1,0c2.5,0,4.8-0.8,6.8-2.4
			c0.6-0.5,1.2-1.1,1.8-1.8c-4.2-1-7.2-3.1-9.2-6.7c-2-3.6-2.2-7.4-0.8-11.3C35.3,35.8,29.4,37,23.5,37.9z M25.7,66.3
			c8.4,0,16.7,0,25,0c-0.2-0.8-0.3-1.5-0.5-2.3c-0.6-2.4-2.1-3.9-4.4-4.4c-0.8-0.2-1.6-0.1-2.4-0.2c-0.5,0-0.7,0.1-0.8,0.6
			c-0.6,1.9-2.3,3.2-4.4,3.1c-2,0-3.7-1.3-4.3-3.2c0-0.2-0.1-0.3-0.1-0.5c-0.7,0-1.5,0-2.2,0c-2.1,0.2-3.8,1.2-4.7,3.1
			C26.3,63.8,26.1,65,25.7,66.3z M65.2,38c0-6.5-5.2-11.8-11.7-11.8c-6.5,0-11.8,5.3-11.8,11.7c0,6.5,5.3,11.8,11.7,11.8
			C59.9,49.8,65.2,44.5,65.2,38z M35.4,57c0,0.7-0.1,1.4,0,2.1c0.2,1.3,1.2,2.3,2.5,2.4c1.4,0.1,2.7-0.6,3-1.9
			c0.2-0.8,0.2-1.7,0.3-2.6c-0.3,0-0.5,0-0.7,0C38.7,57,37.1,57,35.4,57z M21.8,46.3c0-0.7,0-1.4,0-2.1c0-0.7-0.6-1.2-1.3-1.1
			c-0.1,0-0.3,0.1-0.4,0.1c-0.4,0-0.7-0.2-0.8-0.6c-0.1-0.4,0-0.8,0.4-1c0.2-0.1,0.4-0.2,0.6-0.2c0.5,0,0.9,0,1.4,0.1
			c-0.2-0.8-0.7-1.2-1.4-1.2c-0.7-0.1-1.3,0.3-1.6,0.9C18,43.3,19.6,46.1,21.8,46.3z"/>
	</g>
	<g>
		<path class="st1" d="M38.2,49.1c-1.6-0.1-2.8-0.8-3.6-2.3c-0.3-0.6-0.2-1,0.3-1.3c0.5-0.2,0.9-0.1,1.1,0.5
			c0.5,0.9,1.2,1.4,2.1,1.4c1,0,1.7-0.5,2.1-1.3c0.3-0.6,0.7-0.7,1.2-0.5c0.4,0.2,0.6,0.7,0.2,1.3C41,48.3,39.8,49,38.2,49.1z"/>
	</g>
	<g>
		<path class="st1" d="M31.8,41c-0.2,0.6-0.3,1.3-0.6,1.8c-0.5,0.8-1.4,0.8-1.9,0c-0.7-0.9-0.7-2.7,0-3.7c0.5-0.8,1.4-0.8,1.9,0
			C31.5,39.7,31.6,40.3,31.8,41z"/>
	</g>
	<g>
		<path class="st1" d="M38.2,43.9c-0.5,0-1,0-1.5,0c-0.5,0-0.8-0.3-0.8-0.8c0-0.5,0.3-0.8,0.8-0.8c1,0,2,0,3,0
			c0.5,0,0.8,0.4,0.8,0.8c0,0.5-0.3,0.8-0.9,0.8c0,0-0.1,0-0.1,0C39.1,43.9,38.7,43.9,38.2,43.9z"/>
	</g>
	<g>
		<path class="st1" d="M53.4,48c-5.5,0-10-4.5-10.1-10c0-5.6,4.4-10.1,10-10.1c5.5,0,10.1,4.5,10.1,10C63.5,43.5,59,48,53.4,48z
			 M57.5,34c0-1,0-2,0-3c0-0.2-0.2-0.5-0.4-0.6c-1.5-0.8-3.1-1-4.8-0.8c-4.8,0.7-7.9,5-7.2,9.7c0.7,4.5,5.2,7.7,9.7,6.9
			c0.6-0.1,0.9-0.3,1.1-0.9C57.1,41.7,57.5,37.9,57.5,34z M59.3,32c-0.1,2.2-0.1,4.4-0.3,6.6c-0.2,2.2-0.7,4.3-1.1,6.4
			C62.4,42.5,63.3,35.6,59.3,32z"/>
	</g>
	<g>
		<path class="st1" d="M47.9,36.8c0-1.2,0.3-2.3,1.1-3.3c1.2-1.5,3.2-1.5,4.4,0c1.5,1.7,1.5,4.8,0.1,6.6c-1.3,1.6-3.2,1.6-4.5,0
			C48.2,39.1,47.9,38,47.9,36.8z M52.9,36.9c0-1-0.3-1.9-0.8-2.4c-0.6-0.6-1.2-0.6-1.8,0c-1,1.1-1,3.5,0,4.6c0.6,0.6,1.3,0.6,1.8,0
			C52.7,38.4,52.8,37.6,52.9,36.9z"/>
	</g>
</g>
<rect x="100.2" y="35.6" style="fill:none;" width="5" height="0"/>
</svg>
