<?xml version="1.0" encoding="utf-8"?>
<!-- Generator: Adobe Illustrator 28.2.0, SVG Export Plug-In . SVG Version: 6.00 Build 0)  -->
<svg version="1.1" id="Capa_1" xmlns="http://www.w3.org/2000/svg" xmlns:xlink="http://www.w3.org/1999/xlink" x="0px" y="0px"
	 viewBox="0 0 80 80" style="enable-background:new 0 0 80 80;" xml:space="preserve">
<style type="text/css">
	.st0{fill:#07355A;}
	.st1{fill:#FFFFFF;}
</style>
<rect x="-115" y="34.3" style="fill:none;" width="5" height="0"/>
<g>
	<circle class="st0" cx="40" cy="40" r="40"/>
</g>
<path class="st1" d="M18.4,34.3c0.2-1.1,0.4-2.3,0.7-3.4c2-7.3,8.7-12.4,16.2-12.5c0.8,0,1.7,0,2.6,0c0,2.7,0,5.3,0,8
	c-0.6,0-1.1,0-1.7,0c-1.1,0-1.9,0.8-1.8,1.8c0,1,0.8,1.7,1.8,1.7c0.5,0,1.1,0,1.7,0c0,1.5,0,2.9,0,4.4c1.2,0,2.3,0,3.5,0
	c0.1-1.1,0.5-2.1,1.4-2.8c0.7-0.5,1.5-0.8,2.3-0.7c1.8,0.1,3.1,1.4,3.4,3.5c1.7,0,3.5,0,5.3,0c0.1,2.4-0.2,4.8-1,7
	c-1.1,3.1-3,5.6-5.5,7.7c-1,0.8-1.9,1.6-2.9,2.4c-0.2,0.1-0.2,0.4-0.3,0.6c0,0.2,0,0.4,0,0.6c0,0.8,0,1.4,0.8,2
	c1.5,1.1,1.2,3.4-0.5,4.3c-0.2,0.1-0.3,0.2-0.5,0.2c0,0.6,0.1,1.2,0,1.7c-0.1,0.8-0.7,1.3-1.4,1.7c-0.2,0.1-0.4,0.3-0.4,0.5
	c-0.5,2.6-2.5,4.5-5.1,5c-0.1,0-0.2,0.1-0.3,0.1c-0.5,0-1,0-1.6,0c-0.1,0-0.1-0.1-0.2-0.1c-2.8-0.5-4.6-2.3-5.1-5.1
	c0-0.2-0.2-0.4-0.4-0.5c-0.7-0.4-1.2-0.9-1.4-1.7c-0.1-0.5,0-1.1,0-1.7c-0.1-0.1-0.3-0.1-0.4-0.2c-1.7-0.9-2-3.2-0.5-4.3
	c0.8-0.6,0.9-1.2,0.8-2c0-0.2,0-0.4,0-0.6c-0.1-0.2-0.1-0.5-0.3-0.6c-1-0.8-2-1.6-2.9-2.4c-3-2.5-5.1-5.6-6-9.3
	c-0.2-0.9-0.3-1.9-0.5-2.8C18.4,36,18.4,35.2,18.4,34.3z M20.2,36.2c0.2,3.8,1.4,7,4,9.7c1.6,1.6,3.5,3.1,5.2,4.5
	c0.4,0.3,0.6,0.7,0.5,1.2c0,0.8,0,1.6,0,2.3c2.1,0,4.1,0,6.2,0c0-2.4,0-4.7,0-7c-2.1-0.3-3.4-1.5-3.5-3.3c-0.1-0.9,0.2-1.6,0.7-2.3
	c0.7-1,1.7-1.4,2.8-1.5c0-1.2,0-2.3,0-3.5c-1.8,0-3.5,0-5.3,0c0-0.6,0-1.1,0-1.7c0-1-0.8-1.8-1.7-1.8c-1,0-1.8,0.8-1.8,1.8
	c0,0.5,0,1.1,0,1.7C24.9,36.2,22.6,36.2,20.2,36.2z M43.3,36.2c-1.8,0-3.6,0-5.3,0c0,1.8,0,3.5,0,5.3c-0.6,0-1.1,0-1.6,0
	c-1.2,0-2,0.7-2,1.8c0,1,0.8,1.7,2,1.7c0.5,0,1.1,0,1.6,0c0,3,0,5.9,0,8.8c1.5,0,2.9,0,4.4,0c0-0.9,0-1.7,0-2.6
	c0-0.3,0.1-0.5,0.3-0.7c1.1-0.9,2.1-1.8,3.2-2.6c2.1-1.6,3.7-3.6,4.8-6c0.8-1.8,1.3-3.7,1.3-5.7c-1.8,0-3.5,0-5.3,0
	c0-0.6,0-1.2,0-1.7c0-1-0.8-1.8-1.8-1.8c-1,0-1.8,0.8-1.8,1.8C43.2,35,43.3,35.6,43.3,36.2z M36.1,34.4c0-0.9,0-1.8,0-2.6
	c-2.1-0.2-3.5-1.6-3.5-3.5c-0.1-2,1.2-3.3,3.5-3.7c0-1.4,0-2.9,0-4.3c-8.4-0.5-15.5,6.4-15.8,14.1c1.7,0,3.5,0,5.2,0
	c0.3-2.1,1.6-3.5,3.4-3.5c0.9,0,1.6,0.2,2.3,0.7c0.9,0.7,1.3,1.7,1.4,2.8C33.8,34.4,34.9,34.4,36.1,34.4z M36.2,57.5
	c0.9,0,1.8,0,2.7,0c1.5,0,2.9,0,4.4,0c0.4,0,0.8-0.2,0.9-0.6c0-0.3-0.1-0.7-0.3-0.9c-0.2-0.2-0.5-0.2-0.8-0.2c-3.8,0-7.5,0-11.3,0
	c-0.9,0-1.7,0-2.5,0c-0.6,0-1,0.4-0.9,0.9c0,0.5,0.4,0.8,1,0.8C31.5,57.5,33.8,57.5,36.2,57.5z M31.9,62.8c0.3,2,2.3,3.6,4.4,3.5
	c2,0,4-1.7,4.2-3.5c-2.8,0-5.5,0-8.2,0C32.1,62.8,32,62.8,31.9,62.8z M36.1,61c1.7,0,3.4,0,5.1,0c0.7,0,1.2-0.3,1.1-0.9
	c0-0.5-0.4-0.9-1.1-0.9c-3.4,0-6.8,0-10.1,0c-0.7,0-1.2,0.3-1.1,0.9c0,0.5,0.4,0.9,1.1,0.9C32.8,61,34.4,61,36.1,61z"/>
<path class="st1" d="M62.8,27c-0.5,1.3-1.4,2.1-2.9,2.1c-0.6,0-1.3,0-1.9,0c-0.8,0-1.5,0-2.3,0c0-0.6,0-1.1,0-1.7
	c0-1.1-0.8-1.9-1.8-1.9c-1,0-1.7,0.8-1.8,1.9c0,0.5,0,1.1,0,1.6c-2.4,0-4.7,0-7.1,0c0-1.5,0-2.9,0-4.4c-1.2-0.1-2.2-0.6-2.9-1.6
	c-0.5-0.7-0.7-1.5-0.6-2.3c0.1-1.8,1.5-3,3.6-3.3c-0.1-1.8-0.1-3.7,2.1-4.4c4.5,0,9,0,13.5,0c1.1,0.3,1.8,1.1,2.1,2.1
	C62.8,19.2,62.8,23.1,62.8,27z M50.3,27.3c0.3-2.1,1.6-3.5,3.4-3.5c0.9,0,1.6,0.2,2.3,0.7c0.9,0.7,1.3,1.7,1.4,2.8
	c0.8,0,1.5,0,2.3,0c0.9,0,1.2-0.3,1.2-1.2c0-3.3,0-6.7,0-10c0-0.9-0.3-1.2-1.2-1.2c-3.8,0-7.5,0-11.3,0c-1.6,0-1.7,0.1-1.7,1.7
	c0,0.9,0,1.8,0,2.8c-0.6,0-1.1,0-1.6,0c-1.1,0-1.9,0.7-1.9,1.8c0,1,0.8,1.8,1.9,1.8c0.5,0,1.1,0,1.6,0c0,1.5,0,2.9,0,4.4
	C48,27.3,49.1,27.3,50.3,27.3z"/>
</svg>
