<?xml version="1.0" encoding="UTF-8" standalone="no"?>
<!-- Created with Inkscape (http://www.inkscape.org/) -->

<svg
   xmlns:dc="http://purl.org/dc/elements/1.1/"
   xmlns:cc="http://creativecommons.org/ns#"
   xmlns:rdf="http://www.w3.org/1999/02/22-rdf-syntax-ns#"
   xmlns:svg="http://www.w3.org/2000/svg"
   xmlns="http://www.w3.org/2000/svg"
   xmlns:sodipodi="http://sodipodi.sourceforge.net/DTD/sodipodi-0.dtd"
   xmlns:inkscape="http://www.inkscape.org/namespaces/inkscape"
   width="351.20798mm"
   height="52.916672mm"
   viewBox="0 0 351.20798 52.916672"
   version="1.1"
   id="svg62708"
   inkscape:version="0.92.1 r15371"
   sodipodi:docname="El_Espectador_(2019-10-31).svg">
  <defs
     id="defs62702" />
  <sodipodi:namedview
     id="base"
     pagecolor="#ffffff"
     bordercolor="#666666"
     borderopacity="1.0"
     inkscape:pageopacity="0.0"
     inkscape:pageshadow="2"
     inkscape:zoom="0.35"
     inkscape:cx="663.70009"
     inkscape:cy="100.00001"
     inkscape:document-units="mm"
     inkscape:current-layer="layer1"
     showgrid="false"
     fit-margin-top="0"
     fit-margin-left="0"
     fit-margin-right="0"
     fit-margin-bottom="0"
     inkscape:window-width="1920"
     inkscape:window-height="1001"
     inkscape:window-x="-9"
     inkscape:window-y="-9"
     inkscape:window-maximized="1" />
  <metadata
     id="metadata62705">
    <rdf:RDF>
      <cc:Work
         rdf:about="">
        <dc:format>image/svg+xml</dc:format>
        <dc:type
           rdf:resource="http://purl.org/dc/dcmitype/StillImage" />
        <dc:title></dc:title>
      </cc:Work>
    </rdf:RDF>
  </metadata>
  <g
     inkscape:label="Ebene 1"
     inkscape:groupmode="layer"
     id="layer1"
     transform="translate(279.92541,-122.375)">
    <path
       style="fill:#211e1e;fill-opacity:1;stroke:none;stroke-width:0.48403621"
       d="m -254.72279,174.18746 v -13.30343 c 0,-0.3479 -0.17395,-0.46135 -0.40841,-0.46135 -0.17395,0 -0.3479,0.0529 -0.3479,0.46135 v 0.6958 c 0,3.23699 -1.85295,12.32024 -9.83955,12.32024 h -2.9496 c -0.3479,0 -0.40084,-0.17396 -0.40084,-0.34791 v -19.67153 c 0,-0.17395 0.11345,-0.3479 0.46135,-0.3479 h 1.55799 c 2.6622,0 4.74961,3.23699 4.74961,6.42104 v 0.52185 c 0,0.46135 0.22689,0.46135 0.40084,0.46135 0.17395,0 0.3479,-0.0529 0.3479,-0.46135 v -14.46814 c 0,-0.3479 -0.17395,-0.46135 -0.3479,-0.46135 -0.17395,0 -0.40084,0.0605 -0.40084,0.46135 v 0.58235 c 0,3.12355 -2.08741,6.3076 -4.74961,6.3076 h -1.6185 c -0.3479,0 -0.40084,-0.11345 -0.40084,-0.2874 v -17.82614 c 0,-0.17395 0.11345,-0.3479 0.46135,-0.3479 h 3.18405 c 5.26389,0 7.86559,6.13364 7.86559,11.86645 v 0.74874 c 0,0.46135 0.17395,0.46135 0.3479,0.46135 0.23445,0 0.4084,-0.0529 0.4084,-0.46135 v -12.90259 c 0,-0.2874 -0.121,-0.40841 -0.46891,-0.40841 h -21.11608 c -0.4084,0 -0.52185,0.17395 -0.52185,0.3479 0,0.12101 0.0605,0.29496 0.52185,0.29496 h 1.9059 c 0.46891,0 0.58235,0.51429 0.58235,2.3143 v 34.94893 c 0,1.79245 -0.11344,2.3143 -0.58235,2.3143 h -1.9059 c -0.46134,0 -0.52185,0.17395 -0.52185,0.28739 0,0.17395 0.11345,0.34791 0.52185,0.34791 h 22.85559 c 0.2874,0 0.40841,-0.11345 0.40841,-0.40841 z m 0,0"
       id="path60999"
       inkscape:connector-curvature="0" />
    <path
       style="fill:#211e1e;fill-opacity:1;stroke:none;stroke-width:0.48403621"
       d="m -227.4672,174.18746 v -14.52109 c 0,-0.3479 -0.23446,-0.46134 -0.40841,-0.46134 -0.17395,0 -0.3479,0.0529 -0.3479,0.46134 v 1.15715 c 0,4.40171 -2.0269,13.07655 -9.83955,13.07655 h -2.94959 c -0.34791,0 -0.40085,-0.17396 -0.40085,-0.34791 v -36.85482 c 0,-1.80001 0.0529,-2.3143 0.5748,-2.3143 h 2.77564 c 0.46891,0 0.46891,-0.17395 0.46891,-0.29496 0,-0.17395 -0.0605,-0.3479 -0.46891,-0.3479 h -12.66813 c -0.40841,0 -0.52185,0.17395 -0.52185,0.3479 0,0.12101 0.0605,0.29496 0.52185,0.29496 h 1.90589 c 0.46891,0 0.58236,0.51429 0.58236,2.3143 v 34.94893 c 0,1.79245 -0.11345,2.3143 -0.58236,2.3143 h -1.90589 c -0.46135,0 -0.52185,0.17395 -0.52185,0.28739 0,0.17395 0.11344,0.34791 0.52185,0.34791 h 22.79508 c 0.3479,0 0.46891,-0.11345 0.46891,-0.40841 z m 0,0"
       id="path60995"
       inkscape:connector-curvature="0" />
    <path
       style="fill:#211e1e;fill-opacity:1;stroke:none;stroke-width:0.48403621"
       d="m -185.86047,174.18746 v -13.30343 c 0,-0.3479 -0.17395,-0.46135 -0.4084,-0.46135 -0.17395,0 -0.34791,0.0529 -0.34791,0.46135 v 0.6958 c 0,3.23699 -1.85295,12.32024 -9.83954,12.32024 h -2.9496 c -0.3479,0 -0.40084,-0.17396 -0.40084,-0.34791 v -19.67153 c 0,-0.17395 0.11344,-0.3479 0.46135,-0.3479 h 1.55798 c 2.66221,0 4.74961,3.23699 4.74961,6.42104 v 0.52185 c 0,0.46135 0.22689,0.46135 0.40085,0.46135 0.17394,0 0.34789,-0.0529 0.34789,-0.46135 v -14.46814 c 0,-0.3479 -0.17395,-0.46135 -0.34789,-0.46135 -0.17396,0 -0.40085,0.0605 -0.40085,0.46135 v 0.58235 c 0,3.12355 -2.0874,6.3076 -4.74961,6.3076 h -1.61849 c -0.3479,0 -0.40084,-0.11345 -0.40084,-0.2874 v -17.82614 c 0,-0.17395 0.11344,-0.3479 0.46135,-0.3479 h 3.18405 c 5.26389,0 7.86558,6.13364 7.86558,11.86645 v 0.74874 c 0,0.46135 0.17395,0.46135 0.3479,0.46135 0.23446,0 0.40841,-0.0529 0.40841,-0.46135 v -12.90259 c 0,-0.2874 -0.12101,-0.40841 -0.46891,-0.40841 h -21.11608 c -0.40841,0 -0.52185,0.17395 -0.52185,0.3479 0,0.12101 0.0605,0.29496 0.52185,0.29496 h 1.90589 c 0.46891,0 0.58236,0.51429 0.58236,2.3143 v 34.94893 c 0,1.79245 -0.11345,2.3143 -0.58236,2.3143 h -1.90589 c -0.46135,0 -0.52185,0.17395 -0.52185,0.28739 0,0.17395 0.11344,0.34791 0.52185,0.34791 h 22.85559 c 0.28739,0 0.4084,-0.11345 0.4084,-0.40841 z m 0,0"
       id="path60991"
       inkscape:connector-curvature="0" />
    <path
       style="fill:#211e1e;fill-opacity:1;stroke:none;stroke-width:0.48403621"
       d=""
       id="path60987"
       inkscape:connector-curvature="0" />
    <path
       style="fill:#211e1e;fill-opacity:1;stroke:none;stroke-width:0.48403621"
       d="m -160.51833,163.59917 c 0,-12.90259 -16.54799,-13.53789 -16.54799,-24.30013 0,-3.47145 1.85296,-5.55886 4.86306,-5.55886 5.02943,0 7.92609,6.54206 7.92609,12.84965 v 0.46135 c 0,0.46135 0.22689,0.52185 0.40084,0.52185 0.17395,0 0.3479,-0.11344 0.3479,-0.52185 v -12.90259 c 0,-0.46135 -0.17395,-0.58236 -0.3479,-0.58236 -0.17395,0 -0.40084,0.0605 -0.40084,0.58236 v 0.4084 c 0,0.9832 -0.93026,0.5748 -1.9664,0 -1.73951,-0.86975 -3.59246,-1.56555 -5.55886,-1.56555 -6.59499,0 -9.60509,6.48155 -9.60509,11.51099 0,12.61519 16.08664,13.3715 16.08664,23.95979 0,3.7059 -2.42774,6.13365 -6.3681,6.13365 -6.88239,0 -9.08324,-8.9093 -9.08324,-14.69504 v -0.52185 c 0,-0.40841 -0.17395,-0.46135 -0.40085,-0.46135 -0.17395,0 -0.3479,0.0529 -0.3479,0.46135 v 14.75554 c 0,0.46135 0.17395,0.57479 0.3479,0.57479 0.2269,0 0.40085,-0.0529 0.40085,-0.57479 v -0.3479 c 0,-0.93026 0.93026,-0.6958 2.20085,-0.11345 1.9059,0.86219 3.9933,1.6185 6.76894,1.6185 6.82946,0 11.2841,-5.38491 11.2841,-11.6925 z m 0,0"
       id="path60983"
       inkscape:connector-curvature="0" />
    <path
       style="fill:#211e1e;fill-opacity:1;stroke:none;stroke-width:0.48403621"
       d=""
       id="path60979"
       inkscape:connector-curvature="0" />
    <path
       style="fill:#211e1e;fill-opacity:1;stroke:none;stroke-width:0.48403621"
       d="m -132.33711,145.25873 c 0,-8.62189 -5.6723,-11.51855 -10.87569,-11.51855 h -14.12025 c -0.4084,0 -0.52185,0.17395 -0.52185,0.3479 0,0.12101 0.0605,0.29496 0.52185,0.29496 h 1.9059 c 0.4689,0 0.58235,0.51429 0.58235,2.3143 v 34.94893 c 0,1.79245 -0.11345,2.3143 -0.58235,2.3143 h -1.9059 c -0.46134,0 -0.52185,0.17395 -0.52185,0.28739 0,0.17395 0.11345,0.34791 0.52185,0.34791 h 12.78915 c 0.40084,0 0.52185,-0.17396 0.52185,-0.34791 0,-0.11344 -0.0605,-0.28739 -0.52185,-0.28739 h -2.89666 c -0.52185,0 -0.57479,-0.52185 -0.57479,-2.3143 v -14.58159 c 0,-0.17395 0.11345,-0.40841 0.46135,-0.40841 h 4.6891 c 5.37734,0 10.52779,-3.58489 10.52779,-11.39754 z m -7.46475,-0.0605 c 0,8.04711 -1.09664,10.76225 -4.56809,10.76225 h -3.18405 c -0.40841,0 -0.46135,-0.17395 -0.46135,-0.3479 v -20.82869 c 0,-0.17395 0.11345,-0.3479 0.52185,-0.3479 h 3.12355 c 3.23699,0 4.56809,2.83615 4.56809,10.76224 z m 0,0"
       id="path60975"
       inkscape:connector-curvature="0" />
    <path
       style="fill:#211e1e;fill-opacity:1;stroke:none;stroke-width:0.48403621"
       d="m -107.58311,174.18746 v -13.30343 c 0,-0.3479 -0.17395,-0.46135 -0.4084,-0.46135 -0.17395,0 -0.3479,0.0529 -0.3479,0.46135 v 0.6958 c 0,3.23699 -1.85296,12.32024 -9.83955,12.32024 h -2.9496 c -0.3479,0 -0.40084,-0.17396 -0.40084,-0.34791 v -19.67153 c 0,-0.17395 0.11344,-0.3479 0.46135,-0.3479 h 1.55799 c 2.6622,0 4.7496,3.23699 4.7496,6.42104 v 0.52185 c 0,0.46135 0.2269,0.46135 0.40085,0.46135 0.17394,0 0.34789,-0.0529 0.34789,-0.46135 v -14.46814 c 0,-0.3479 -0.17395,-0.46135 -0.34789,-0.46135 -0.17395,0 -0.40085,0.0605 -0.40085,0.46135 v 0.58235 c 0,3.12355 -2.0874,6.3076 -4.7496,6.3076 h -1.6185 c -0.3479,0 -0.40084,-0.11345 -0.40084,-0.2874 v -17.82614 c 0,-0.17395 0.11344,-0.3479 0.46135,-0.3479 h 3.18405 c 5.26389,0 7.86558,6.13364 7.86558,11.86645 v 0.74874 c 0,0.46135 0.17396,0.46135 0.34791,0.46135 0.23445,0 0.4084,-0.0529 0.4084,-0.46135 v -12.90259 c 0,-0.2874 -0.12101,-0.40841 -0.46891,-0.40841 h -21.11608 c -0.40841,0 -0.52185,0.17395 -0.52185,0.3479 0,0.12101 0.0605,0.29496 0.52185,0.29496 h 1.90589 c 0.46891,0 0.58236,0.51429 0.58236,2.3143 v 34.94893 c 0,1.79245 -0.11345,2.3143 -0.58236,2.3143 h -1.90589 c -0.46135,0 -0.52185,0.17395 -0.52185,0.28739 0,0.17395 0.11344,0.34791 0.52185,0.34791 h 22.85559 c 0.28739,0 0.4084,-0.11345 0.4084,-0.40841 z m 0,0"
       id="path60971"
       inkscape:connector-curvature="0" />
    <path
       style="fill:#211e1e;fill-opacity:1;stroke:none;stroke-width:0.48403621"
       d="m -79.998574,174.18746 v -14.98243 c 0,-0.40841 -0.17395,-0.52186 -0.40841,-0.52186 -0.17395,0 -0.3479,0.0605 -0.3479,0.52186 v 0.98319 c 0,8.274 -3.6454,14.46815 -9.08324,14.46815 -5.3244,0 -5.84625,-4.9765 -6.19415,-11.91939 -0.2874,-5.61936 -0.2874,-11.2841 0,-16.90345 0.23446,-5.20339 0.12101,-12.14629 5.6723,-12.14629 4.0538,0 8.0471,5.2639 8.0471,13.65134 v 0.58235 c 0,0.46135 0.17395,0.52185 0.40084,0.52185 0.17395,0 0.3479,-0.12101 0.3479,-0.52185 v -13.77234 c 0,-0.46135 -0.23445,-0.58236 -0.40084,-0.58236 -0.17395,0 -0.3479,0.0605 -0.3479,0.58236 v 0.4084 c 0,1.03614 -1.0437,0.46135 -1.97396,0 -1.38404,-0.64286 -3.81178,-1.50505 -6.07314,-1.50505 -9.37064,0 -13.946286,9.43115 -13.946286,21.46399 0,9.14374 3.99329,20.77574 14.120236,20.77574 2.42774,0 5.3849,-0.80925 7.3513,-1.6185 1.03614,-0.40841 2.07984,-0.86975 2.07984,0.11345 v 0.40084 c 0,0.46891 0.17395,0.58236 0.3479,0.58236 0.17395,0 0.40841,-0.11345 0.40841,-0.58236 z m 0,0"
       id="path60967"
       inkscape:connector-curvature="0" />
    <path
       style="fill:#211e1e;fill-opacity:1;stroke:none;stroke-width:0.48403621"
       d=""
       id="path60963"
       inkscape:connector-curvature="0" />
    <path
       style="fill:#211e1e;fill-opacity:1;stroke:none;stroke-width:0.48403621"
       d="m -49.103554,147.86043 v -13.71184 c 0,-0.2874 -0.11345,-0.40841 -0.46135,-0.40841 h -27.13628 c -0.28739,0 -0.46135,0.12101 -0.46135,0.40841 v 13.71184 c 0,0.4084 0.2269,0.46134 0.40085,0.46134 0.17395,0 0.3479,0 0.3479,-0.46134 v -1.15715 c 0,-6.01264 2.54875,-12.26729 7.63869,-12.26729 h 1.73951 c 0.3479,0 0.52185,0.17395 0.52185,0.3479 v 36.86238 c 0,1.79245 -0.12101,2.3143 -0.58235,2.3143 h -2.02691 c -0.40084,0 -0.46134,0.17395 -0.46134,0.28739 0,0.17395 0.0605,0.34791 0.46134,0.34791 h 11.9799 c 0.40841,0 0.52185,-0.17396 0.52185,-0.34791 0,-0.11344 -0.0605,-0.28739 -0.52185,-0.28739 h -1.9664 c -0.52185,0 -0.58235,-0.52185 -0.58235,-2.3143 v -36.86238 c 0,-0.17395 0.12101,-0.3479 0.52185,-0.3479 h 1.7395 c 5.02945,0 7.5782,6.25465 7.5782,12.26729 v 1.15715 c 0,0.46134 0.17395,0.46134 0.4084,0.46134 0.17395,0 0.34034,-0.0529 0.34034,-0.46134 z m 0,0"
       id="path60959"
       inkscape:connector-curvature="0" />
    <path
       style="fill:#211e1e;fill-opacity:1;stroke:none;stroke-width:0.48403621"
       d="m -19.689144,174.24796 c 0,-0.11344 0,-0.28739 -0.46135,-0.28739 h -0.74875 c -0.7563,0 -0.98319,-0.3479 -1.56555,-2.54876 l -9.6656,-37.55062 c -0.11344,-0.23445 -0.17395,-0.3479 -0.46135,-0.3479 h -3.52439 c -0.29495,0 -0.4689,0.11345 -0.4689,0.3479 l -6.6555,29.10268 c -2.19329,9.77905 -3.58489,10.9967 -4.9765,10.9967 h -0.16639 c -0.4084,0 -0.46891,0.17395 -0.46891,0.28739 0,0.17395 0.0605,0.34791 0.46891,0.34791 h 8.96224 c 0.4084,0 0.4689,-0.17396 0.4689,-0.34791 0,-0.11344 -0.0605,-0.28739 -0.4689,-0.28739 h -0.9227 c -3.23699,0 -3.41094,-4.40171 -2.07984,-10.58829 l 0.80925,-3.76641 c 0.0529,-0.22689 0.11344,-0.3479 0.40084,-0.3479 h 8.22105 c 0.3479,0 0.3479,0.17395 0.40084,0.3479 l 2.83616,11.80594 c 0.58235,2.20086 0.34789,2.54876 -0.46135,2.54876 h -1.6185 c -0.46891,0 -0.52185,0.17395 -0.52185,0.28739 0,0.17395 0.11345,0.34791 0.52185,0.34791 h 11.68494 c 0.4084,0 0.46135,-0.17396 0.46135,-0.34791 z m -13.30344,-16.20008 c 0.0529,0.22689 -0.0605,0.46134 -0.4084,0.46134 h -7.46475 c -0.3479,0 -0.46135,-0.17395 -0.46135,-0.34789 l 3.9328,-17.9396 h 0.121 z m 0,0"
       id="path60955"
       inkscape:connector-curvature="0" />
    <path
       style="fill:#211e1e;fill-opacity:1;stroke:none;stroke-width:0.48403621"
       d="m 9.1495564,153.88063 c 0,-10.87569 -4.91599,-20.14045 -14.05972,-20.14045 H -18.682524 c -0.40841,0 -0.52185,0.17395 -0.52185,0.3479 0,0.12101 0.0605,0.29496 0.52185,0.29496 h 1.90589 c 0.46891,0 0.58236,0.51429 0.58236,2.3143 v 34.94893 c 0,1.79245 -0.11345,2.3143 -0.58236,2.3143 h -1.90589 c -0.46135,0 -0.52185,0.17395 -0.52185,0.28739 0,0.17395 0.11344,0.34791 0.52185,0.34791 h 13.7723604 c 9.43112,0 14.05972,-8.9093 14.05972,-20.71524 z m -8.27399997,8.38744 c -0.28739,5.49835 -0.46133,11.632 -5.78572003,11.632 h -4.05382 c -0.3479,0 -0.40084,-0.17396 -0.40084,-0.34791 v -38.76827 c 0,-0.17395 0.11345,-0.3479 0.46135,-0.3479 h 3.87229 c 5.03700003,0 5.61935003,5.84625 5.90674003,11.28409 0.28741997,5.49835 0.28741997,11.04964 0,16.54799 z m 0,0"
       id="path60951"
       inkscape:connector-curvature="0" />
    <path
       style="fill:#211e1e;fill-opacity:1;stroke:none;stroke-width:0.48403621"
       d="m 40.455876,153.99408 c 0,-11.2236 -4.86305,-20.94214 -14.05975,-20.94214 -9.55215,0 -14.0068,9.77905 -14.0068,21.29004 0,11.22359 4.86306,20.94969 14.0068,20.94969 9.54458,0 14.05975,-9.77904 14.05975,-21.29759 z m -8.33451,8.50844 c -0.22688,4.80255 0.12102,12.15385 -5.84623,12.15385 -5.26392,0 -5.37737,-7.4118 -5.61182,-11.86645 -0.28739,-5.6118 -0.28739,-11.33704 0,-16.95639 0.23445,-4.80255 -0.11342,-12.14629 5.84626,-12.14629 5.26389,0 5.38491,7.34374 5.61179,11.80595 0.28739,5.61179 0.28739,11.39754 0,17.00933 z m 0,0"
       id="path60947"
       inkscape:connector-curvature="0" />
    <path
       style="fill:#211e1e;fill-opacity:1;stroke:none;stroke-width:0.48403621"
       d="m 70.718966,171.75972 c -0.3479,-0.0605 -0.46135,0.17395 -0.52184,0.46134 -0.28741,0.9832 -0.98322,1.9664 -1.96641,1.9664 -1.44454,0 -1.44454,-1.49749 -1.44454,-3.00254 0,-1.80001 0,-4.62859 0,-6.88995 0,-7.3513 -4.2807,-10.52779 -8.90929,-11.11014 v -0.0605 c 4.80253,-0.46135 8.67484,-4.45465 8.67484,-9.48409 0,-7.23785 -5.2034,-9.90005 -10.06644,-9.90005 h -14.05975 c -0.40841,0 -0.52184,0.17395 -0.52184,0.3479 0,0.12101 0.0605,0.29496 0.52184,0.29496 h 1.9059 c 0.46889,0 0.58235,0.51429 0.58235,2.3143 v 34.94893 c 0,1.79244 -0.11346,2.3143 -0.58235,2.3143 h -1.9059 c -0.46135,0 -0.52184,0.17394 -0.52184,0.28739 0,0.17395 0.11343,0.3479 0.52184,0.3479 h 11.74544 c 0.46135,0 0.52186,-0.17395 0.52186,-0.3479 0,-0.11345 -0.0605,-0.28739 -0.52186,-0.28739 h -1.85293 c -0.52187,0 -0.57481,-0.52186 -0.57481,-2.3143 v -17.76565 c 0,-0.23446 0.11345,-0.40841 0.52186,-0.40841 h 3.17648 c 2.7227,0 4.51515,1.3311 4.57566,6.6555 0.0529,2.89665 -0.0605,5.21095 -0.0605,8.16055 0,4.0538 2.48824,7.0034 6.71599,7.0034 2.42777,0 3.75886,-1.21765 4.2807,-2.89666 0.0529,-0.28739 0.11345,-0.57479 -0.23445,-0.63529 z m -10.82275,-28.00604 c 0,6.76895 -1.21008,9.08325 -4.22019,9.08325 h -3.47144 c -0.40841,0 -0.46135,-0.17396 -0.46135,-0.34791 v -17.64463 c 0,-0.23445 0.11345,-0.4084 0.52186,-0.4084 h 3.35042 c 2.83615,0 4.2807,2.7227 4.2807,9.31769 z m 0,0"
       id="path60943"
       inkscape:connector-curvature="0" />
    <path
       inkscape:connector-curvature="0"
       id="path96238"
       d="M -279.92541,125.80512 H 71.282556"
       style="fill:none;stroke:#c21419;stroke-width:6.86024523;stroke-linecap:butt;stroke-linejoin:miter;stroke-miterlimit:10;stroke-opacity:1" />
  </g>
</svg>
