<?xml version="1.0" encoding="utf-8"?>
<!-- Generator: Adobe Illustrator 28.2.0, SVG Export Plug-In . SVG Version: 6.00 Build 0)  -->
<svg version="1.1" id="Capa_1" xmlns="http://www.w3.org/2000/svg" xmlns:xlink="http://www.w3.org/1999/xlink" x="0px" y="0px"
	 viewBox="0 0 80.3 76.7" style="enable-background:new 0 0 80.3 76.7;" xml:space="preserve">
<style type="text/css">
	.st0{fill:#FFFFFF;}
</style>
<g>
	<path class="st0" d="M58.6,48.7c0.6-0.3,1.1-0.6,1.7-0.8c3.1-1.5,6.2-3.1,9.3-4.6c2.5-1.2,5-1.4,7.5-0.2c2,0.9,3,2.6,3.1,4.8
		c0.1,2.2-0.7,4-2.6,5.1c-4,2.3-8.1,4.5-12.2,6.6c-2.2,1.1-4.5,1.9-6.9,2.5c-2.9,0.8-5.8,1.7-8.7,2.5c-2.5,0.7-5.1,0.9-7.7,0.9
		c-4.1,0-8.3,0-12.4,0c-0.3,0-0.5,0-0.8,0c0.1,0.2,0.2,0.4,0.2,0.5c0.5,1.3,0.4,2.5-0.6,3.5c-2.1,2.1-4.2,4.3-6.3,6.3
		c-1.3,1.3-3.2,1.2-4.6-0.1c-3.1-3.1-6.3-6.3-9.4-9.4c-2.3-2.3-4.6-4.6-6.9-6.9c-1.6-1.6-1.6-3.5,0-5.1c1.9-1.9,3.8-3.8,5.6-5.6
		c1.5-1.5,3-1.7,4.8-0.4c0,0,0.1,0,0.3,0.2c0.4-0.5,0.7-1,1.2-1.4c2.7-2.6,5.8-4.8,9.4-6c5-1.7,9.7-1.1,14.3,1.3
		c0.4,0.2,0.9,0.3,1.4,0.3c4.1,0,8.1,0,12.2,0c3.9,0,6.6,1.9,8,5.6C58.5,48.4,58.5,48.5,58.6,48.7z M13.7,50.3
		c0.1,0.1,0.1,0.1,0.1,0.2c4.2,4.2,8.4,8.5,12.7,12.7c0.1,0.1,0.4,0.1,0.6,0.1c0.9-0.1,1.7-0.4,2.6-0.4c4.1,0,8.3,0,12.4,0
		c2.2,0,4.5-0.2,6.7-0.8c2.8-0.7,5.5-1.5,8.3-2.3c2.4-0.7,4.7-1.3,6.9-2.4c4.1-2.1,8.2-4.4,12.3-6.6c1.2-0.6,1.6-1.7,1.4-3
		c-0.2-1.3-0.9-2.2-2.2-2.6c-1.5-0.4-3-0.3-4.4,0.4c-4,2-8,3.9-11.9,5.9c-0.2,0.1-0.4,0.3-0.5,0.4C57.8,53.4,56.6,54,55,54
		c-5.1,0-10.2,0-15.3,0c-0.3,0-0.6,0-0.9-0.1c-0.6-0.2-0.9-0.7-0.8-1.4c0.1-0.6,0.5-1.1,1.1-1.1c0.2,0,0.5,0,0.7,0c5,0,10,0,15,0
		c1.2,0,1.6-0.4,1.3-1.6c-0.6-2.6-2.6-4.3-5.3-4.3c-4.4,0-8.8,0-13.2,0c-0.5,0-1-0.1-1.5-0.4c-3.2-1.8-6.7-2.7-10.4-2
		C20.8,43.9,17.1,46.8,13.7,50.3z M26.7,67.3c-0.2-0.2-0.3-0.5-0.4-0.6c-1.3-1.3-2.7-2.7-4-4c-4-4-8.1-8.1-12.1-12.1
		C9.6,50,9.3,50,8.9,50.4c-2,2-3.9,3.9-5.9,5.9c-0.4,0.4-0.4,0.7,0,1.1c0.6,0.6,1.2,1.2,1.9,1.9c4.8,4.8,9.6,9.6,14.3,14.3
		c0.5,0.5,0.8,0.5,1.2,0.1c2-2,4-4,6-6C26.5,67.7,26.6,67.5,26.7,67.3z"/>
	<path class="st0" d="M57.4,23.9c0.7,3.6,0.2,7.3,0.4,10.9c0,0.3,0,0.5-0.1,0.8c-0.1,0.6-0.6,1-1.3,1c-0.6,0-1.2-0.4-1.3-1.1
		c0-0.3,0-0.5,0-0.8c0-2.5-0.1-5.1,0-7.6c0.1-4.1-3.3-6.8-6.8-6.9c-4.3-0.1-8.6-0.1-12.9,0c-3.6,0.1-6.9,2.9-6.8,6.9
		c0.1,2.7,0,5.4,0,8c0,0.6-0.2,1-0.7,1.3c-0.4,0.2-0.9,0.2-1.3-0.1c-0.4-0.3-0.6-0.7-0.6-1.2c0-3,0-5.9,0-8.9c0-0.8,0.2-1.5,0.4-2.4
		c-0.2,0-0.3,0-0.5,0c-2.6,0-5.1,0-7.7,0c-2.1,0-3.8,1.1-4.3,2.9c-0.1,0.5-0.2,1-0.2,1.5c0,2.3,0,4.5,0,6.8c0,0.9-0.5,1.5-1.2,1.5
		c-0.7,0-1.2-0.4-1.4-1c0-0.2-0.1-0.5-0.1-0.7c0-2.1,0.1-4.3,0-6.4c-0.1-4.3,3.2-7.1,6.9-7.2c0.2,0,0.4,0,0.7,0
		c-0.2-0.2-0.3-0.4-0.4-0.5c-1.9-2.5-2.6-5.3-1.4-8.4c1.1-2.6,4-4.1,6.8-3.5c2.8,0.6,4.8,3,4.9,5.8c0,2.3-0.6,4.5-2.2,6.2
		c-0.1,0.1-0.1,0.1-0.2,0.3c0.6,0.1,1.1,0.1,1.6,0.1c0.1,0,0.3-0.1,0.4-0.2c2.1-2.4,4.8-3.6,8-3.5c0.4,0,0.7,0,1.2,0
		c-0.1-0.2-0.1-0.3-0.2-0.3c-1.9-1.7-2.8-3.9-3.3-6.4c-0.4-2.1-0.3-4.2,0.7-6.2c1.6-3.2,5.2-5.1,8.7-4.5c3.5,0.5,6.5,3.3,7,6.8
		c0.6,3.9-0.4,7.5-3.3,10.3c-0.1,0.1-0.1,0.1-0.1,0.2c0,0,0,0.1,0,0.2c0.6,0,1.1,0,1.6,0c2.5,0.1,4.8,0.9,6.6,2.7
		c0.1,0.1,0.2,0.1,0.2,0.2c0.6,1.1,1.5,1,2.5,0.7c0-0.1-0.1-0.2-0.1-0.2c-1.8-2-2.4-4.5-2.1-7.1c0.4-3.4,4.2-5.8,7.5-4.9
		c3.3,0.9,5.2,3.8,4.7,7.3c-0.3,1.8-0.9,3.4-2.1,4.8c0,0-0.1,0.1-0.1,0.2c0.8,0.1,1.5,0.2,2.3,0.4c3,0.7,5.1,3.3,5.2,6.4
		c0,2.4,0,4.8,0,7.2c0,0.9-0.5,1.5-1.3,1.5c-0.8,0-1.3-0.6-1.3-1.5c0-2.2-0.1-4.5,0-6.7c0.1-2.6-1.9-4.4-4.3-4.5
		c-2.7-0.1-5.5,0-8.2,0C57.5,23.9,57.5,23.9,57.4,23.9z M36.1,9.3c0.1,1.5,0.5,3.4,1.8,5.1c2,2.7,5.5,2.7,7.6,0.1
		c1-1.2,1.5-2.7,1.8-4.2c0.2-1.2,0.3-2.5-0.1-3.7c-0.9-2.8-3.7-4.4-6.5-3.9C38,3.2,36,5.7,36.1,9.3z M25.8,15.3c0-2.1-1.2-3.6-3-3.8
		c-1.8-0.3-3.5,0.8-3.9,2.5c-0.4,1.8,0,3.6,1.2,5c1.3,1.5,3.3,1.4,4.5-0.2C25.4,17.6,25.7,16.3,25.8,15.3z M64.9,15.4
		c0-2.2-1.2-3.7-3-4c-1.7-0.3-3.5,0.7-3.9,2.5c-0.4,1.8,0,3.5,1.1,4.9c1.2,1.6,3.3,1.6,4.5-0.1C64.5,17.7,64.9,16.4,64.9,15.4z"/>
	<path class="st0" d="M48.4,31.7c0-1.1,0-2.3,0-3.4c0-0.9,0.5-1.5,1.3-1.5c0.8,0,1.3,0.6,1.3,1.5c0,2.3,0,4.5,0,6.8
		c0,0.9-0.6,1.5-1.4,1.5c-0.8,0-1.3-0.6-1.3-1.5C48.4,34,48.4,32.8,48.4,31.7z"/>
	<path class="st0" d="M32.7,31.7c0-1.1,0-2.2,0-3.3c0-0.9,0.5-1.5,1.3-1.5c0.8,0,1.3,0.6,1.4,1.5c0,2.2,0,4.5,0,6.7
		c0,1.2-1,1.9-2,1.3c-0.5-0.3-0.7-0.7-0.7-1.2C32.7,34,32.7,32.8,32.7,31.7C32.7,31.7,32.7,31.7,32.7,31.7z"/>
	<path class="st0" d="M21.6,67.2c0,1-0.8,1.9-1.9,1.9c-1.1,0-1.9-0.9-1.9-1.9c0-1,0.9-1.9,1.9-1.9C20.8,65.3,21.6,66.1,21.6,67.2z"
		/>
</g>
</svg>
