<?xml version="1.0" encoding="utf-8"?>
<!-- Generator: Adobe Illustrator 28.2.0, SVG Export Plug-In . SVG Version: 6.00 Build 0)  -->
<svg version="1.1" id="Capa_1" xmlns="http://www.w3.org/2000/svg" xmlns:xlink="http://www.w3.org/1999/xlink" x="0px" y="0px"
	 viewBox="0 0 80 80" style="enable-background:new 0 0 80 80;" xml:space="preserve">
<style type="text/css">
	.st0{fill:#07355A;}
	.st1{fill:#FFFFFF;}
</style>
<g>
	<g>
		<circle class="st0" cx="40" cy="40" r="40"/>
	</g>
	<path class="st1" d="M14.3,59.2c-0.3-0.2-0.4-0.4-0.4-0.8c0-2,0-4,0-6c0.1-4.7,3.9-8.9,8.6-9.4c0.2,0,0.3,0,0.5-0.1
		c0.1-0.1,0.2-0.2,0.3-0.3c0-0.1-0.1-0.1-0.1-0.2c-0.6,0-1.2,0-1.8,0c-2,0-3.2-1.2-3.2-3.2c0-2.5,0-5,0-7.5c0-4.6,3.1-8.3,7.7-8.9
		c4.7-0.7,9.5,2.9,9.9,7.7c0.1,0.5,0.1,1.1,0.1,1.6c0,2.4,0,4.8,0,7.3c0,1.7-1.2,3-3,3c-0.7,0-1.3,0-2,0c-0.1,0.3,0,0.4,0.3,0.5
		c2,0.2,3.5,0.8,5.1,1.9c1.6-4.2,4.7-6.6,9.3-7.1c0-0.7,0-1.4,0-2c0-0.1-0.1-0.3-0.3-0.4c-1.9-1.5-2.9-3.4-2.8-5.8
		c0.1-1.6-0.3-3.1-0.5-4.7c-0.1-0.6-0.1-1.2-0.1-1.8c0.1-0.6-0.1-1-0.5-1.3c-0.2-0.2-0.4-0.3-0.6-0.4c-0.6-0.4-0.7-0.7-0.2-1.2
		c1.3-1.3,2.7-2.4,4.3-3.3c1.3-0.7,2.6-1.1,4.1-1.2c1.6,0,3,0.5,4.2,1.5c0.3,0.2,0.6,0.4,1,0.5c1.4,0.4,2.3,1.4,2.7,2.8
		c0.5,1.7,0.4,3.5,0.1,5.2c-0.3,1.2-0.4,2.5-0.3,3.7c0,2.4-0.9,4.3-2.8,5.8c-0.1,0.1-0.3,0.2-0.3,0.4c0,0.7,0,1.4,0,1.9
		c1.2,0.3,2.3,0.5,3.4,1c3.6,1.6,5.8,4.3,6.2,8.3c0.2,1.7,0.1,3.5,0.1,5.2c0,2.1,0,4.2,0,6.2c0,0.4-0.1,0.7-0.4,0.9
		C46.7,59.2,30.5,59.2,14.3,59.2z M42,51.5c0-0.2,0-0.4,0-0.5c0-0.8,0-1.7,0-2.5c0-0.6,0.1-0.9,0.5-0.9c0.4,0,0.6,0.2,0.6,0.9
		c0,0.1,0,0.2,0,0.3c0,2.9,0,5.7,0,8.6c0,0.2,0,0.4,0,0.6c4.4,0,8.7,0,13,0c0-0.2,0-0.4,0-0.6c0-2.9,0-5.9,0-8.8
		c0-0.2-0.1-0.4,0-0.5c0.1-0.2,0.3-0.4,0.5-0.4c0.2,0,0.4,0.2,0.5,0.4c0.1,0.1,0,0.3,0,0.5c0,1,0,1.9,0,2.9c1.7,0,3.3,0,4.9,0
		c0-1.3,0.1-2.6,0-3.9c-0.2-3.3-1.8-5.8-4.7-7.5c-0.3-0.2-0.4-0.2-0.7,0.1c-1.5,1.4-2.9,2.9-4.4,4.3c-0.1,0.1-0.2,0.1-0.2,0.2
		c-0.2,0.7-0.4,1.5-0.5,2.2c-0.1,2.6,0,5.3,0,7.9c0,0.4-0.1,0.8-0.4,1.1c-0.4,0.5-0.8,0.9-1.2,1.4c-0.4,0.4-0.7,0.4-1,0
		c-0.4-0.5-0.8-1-1.3-1.4c-0.3-0.3-0.4-0.6-0.4-1.1c0-2.4,0-4.9,0-7.3c0-1-0.2-1.8-0.5-2.7c0-0.1-0.1-0.3-0.2-0.4
		c-1.5-1.4-2.9-2.9-4.4-4.3c-0.2-0.2-0.3-0.2-0.5-0.1c-2.3,1.3-3.8,3.2-4.5,5.8c-0.5,1.8-0.3,3.7-0.3,5.6c0,0,0,0.1,0.1,0.1
		C38.7,51.5,40.3,51.5,42,51.5z M26.5,58c0-0.2,0-0.4,0-0.6c0-2,0-3.9,0-5.9c0-0.7-0.2-1.1-0.7-1.4c-0.3-0.2-0.6-0.4-0.9-0.6
		c-0.8-0.7-1.7-1-2.7-0.4c0,0,0,0,0,0c-0.4,0.1-0.7,0-0.8-0.5c-0.1-0.3-0.1-0.7-0.2-1c-0.2-1-0.5-2-0.7-3.1
		c-2.9,1.1-5.3,4.2-5.3,7.1c1.5,0,3,0,4.6,0c0-0.5,0-1,0-1.5c0-0.3,0.2-0.6,0.6-0.6c0.3,0,0.5,0.2,0.6,0.6c0,0.1,0,0.3,0,0.4
		c0,2.2,0,4.5,0,6.7c0,0.2,0,0.3,0,0.5C22.8,58,24.6,58,26.5,58z M33.8,44.6c-0.1,0.3-0.1,0.4-0.2,0.5c-0.3,1.2-0.5,2.3-0.8,3.5
		c-0.1,0.6-0.4,0.8-1,0.6c-0.3-0.1-0.6-0.2-1-0.3c-0.2,0-0.5,0-0.6,0.1c-0.8,0.5-1.5,1-2.2,1.5c-0.3,0.2-0.4,0.4-0.4,0.7
		c0,2.1,0,4.2,0,6.4c0,0.2,0,0.3,0,0.5c1.9,0,3.8,0,5.7,0c0-0.2,0-0.4,0-0.6c0-2.3,0-4.6,0-6.9c0-0.5,0.2-0.8,0.6-0.8
		c0.5,0,0.6,0.4,0.6,0.8c0,0.4,0,0.8,0,1.3c0.5,0,1,0,1.4,0c0-0.1,0-0.1,0-0.1c0.1-1.8,0.1-3.6,0.2-5.4c0-0.1-0.1-0.3-0.2-0.3
		C35.2,45.5,34.5,45.1,33.8,44.6z M43.6,28.1c0,0.6,0,1.2,0,1.8c0.1,2.6,1.9,4.8,4.4,5.5c2.5,0.7,5.2-0.4,6.6-2.6
		c0.9-1.4,1-2.9,0.9-4.5c0-0.1-0.1-0.3-0.2-0.4c-0.1,0.1-0.3,0.2-0.4,0.3c-0.5,1.1-1.4,1.8-2.5,1.7c-1.1,0-2-0.7-2.4-1.9
		c-0.1-0.3-0.3-0.4-0.5-0.3c-0.1,0-0.3,0.2-0.4,0.3c-0.4,1.2-1.3,1.9-2.4,1.9c-1.1,0-2-0.6-2.5-1.7C44.1,28,44,28,43.6,28.1z
		 M32.6,33.5c-0.1,0.1-0.3,0.2-0.4,0.4c-0.5,1.1-1.3,1.6-2.5,1.6c-1.1,0-1.9-0.7-2.3-1.8c-0.1-0.2-0.2-0.5-0.5-0.4
		c-0.2,0-0.3,0.2-0.4,0.4c-0.3,0.8-0.8,1.4-1.6,1.6c-1.3,0.4-2.6-0.2-3.1-1.5c-0.1-0.1-0.2-0.2-0.3-0.3c-0.1,0.1-0.2,0.3-0.2,0.4
		c0,0.6,0,1.1,0,1.7c0.1,2.3,1.6,4.3,3.9,5c2.3,0.7,4.3,0.2,5.9-1.6C32.7,37.5,32.9,35.6,32.6,33.5z M43.2,25c0,0,0.1,0,0.1,0
		c0-0.1,0.1-0.2,0.1-0.2c1-2,2.6-3.1,5-3.1c1.3,0,2.7-0.3,4-0.6c0.7-0.2,1.4-0.1,1.9,0.4c0.5,0.5,0.9,1.1,1.3,1.7
		c0.2,0.3,0.3,0.7,0.5,1.1c0.2-1.4,0.2-2.8-0.5-4.1c-0.4-0.6-1-1-1.7-1.2c-0.3-0.1-0.7-0.3-1-0.5c-1.3-1.1-2.7-1.6-4.4-1.4
		c-1.9,0.3-3.5,1.3-5,2.4c-0.5,0.4-1,0.8-1.5,1.3c0.2,0.1,0.3,0.2,0.4,0.3c0.7,0.6,1.1,1.3,1,2.3C43,23.8,43.1,24.4,43.2,25z
		 M23.2,41.3c0.1-0.4,0-0.6-0.3-0.8c-1.1-0.9-1.9-2-2.3-3.3c-0.5-1.7-0.5-3.5-0.1-5.2c0.9-3.2,2.5-4.5,5.8-4.7
		c1.1-0.1,2.1-0.3,3.2-0.4c-0.4-1.1,0.2-1.6,1.1-2C26,22.4,20,25.2,19.5,30.7c-0.3,2.9-0.1,5.9-0.1,8.9c0,0.9,0.7,1.6,1.5,1.7
		C21.6,41.4,22.4,41.3,23.2,41.3z M55.3,27c0.1,0,0.1-0.1,0.2-0.1c-0.4-1.2-0.7-2.3-1.1-3.5c-0.2-0.4-0.5-0.8-0.8-1.1
		c-0.2-0.2-0.5-0.3-0.7-0.2c-1.7,0.5-3.5,0.7-5.3,0.8c-0.4,0-0.8,0.1-1.2,0.3c-1.5,0.8-2.1,2.2-2.5,3.8c0.2-0.1,0.3-0.2,0.4-0.4
		c0.5-1,1.2-1.6,2.3-1.6c1.1,0,1.9,0.5,2.4,1.4c0.1,0.3,0.3,0.4,0.6,0.4c0.1,0,0.3,0,0.4,0c0,0,0,0,0.1-0.1c0.5-1.1,1.3-1.7,2.4-1.7
		c1.2,0,2,0.6,2.4,1.8C55,26.8,55.2,26.9,55.3,27z M37,58c1.7,0,3.3,0,4.9,0c0-1.8,0-3.6,0-5.4c-1.5,0-2.9,0-4.3,0
		c-0.2,0-0.5,0.3-0.5,0.5C37,54.8,37,56.4,37,58z M62.1,58c0-1.8,0-3.6,0-5.4c-1.7,0-3.3,0-4.9,0c0,1.8,0,3.6,0,5.4
		C58.8,58,60.4,58,62.1,58z M32.5,32.4c0,0,0.1-0.1,0.1-0.1c-0.2-1.4-0.5-2.8-1.4-4c-0.1-0.2-0.3-0.4-0.4-0.4
		c-0.2-0.1-0.5-0.2-0.7-0.1c-1.6,0.5-3.3,0.6-5,0.8c-0.5,0-1.1,0.2-1.6,0.6c-1.2,0.8-1.7,2-2,3.3c0.2-0.1,0.2-0.2,0.3-0.4
		c0.5-1.3,2-1.9,3.3-1.4c0.7,0.3,1.2,0.8,1.4,1.6c0.3-0.1,0.7,0.2,0.9-0.3c0.5-1,1.3-1.5,2.3-1.5c1.1,0,1.9,0.6,2.3,1.7
		C32.3,32.3,32.4,32.3,32.5,32.4z M27.1,49.1c0.8-1.6,1.4-3.1,2.2-4.6c0.5-1,0.6-2,0.5-3.1c-1.8,0.7-3.6,0.7-5.4,0
		c0,0.7-0.1,1.5,0.1,2C25.3,45.3,26.2,47.1,27.1,49.1z M19.7,58c0-1.7,0-3.3,0-5c-1.6,0-3.1,0-4.6,0c0,1.7,0,3.3,0,5
		C16.6,58,18.1,58,19.7,58z M30.5,26.2c0.1,0.1,0.2,0.3,0.3,0.3c1.3,0.4,1.8,1.5,2.3,2.6c0.8,2.1,1,4.3,0.8,6.5
		c-0.2,2-1,3.6-2.6,4.8C31,40.8,30.9,41,31,41.4c0.7,0,1.4,0,2.1,0c1,0,1.7-0.7,1.7-1.7c0-2.8,0.1-5.6,0-8.4
		c-0.1-2.2-1.1-4.1-2.8-5.5c-0.1-0.1-0.3-0.1-0.4-0.1C31.2,25.8,30.9,26,30.5,26.2z M50.6,46.8c-0.7,0-1.4,0-2,0c0,0.1,0,0.1,0,0.1
		c0,2.6,0,5.2,0,7.8c0,0.1,0,0.3,0.1,0.4c0.3,0.4,0.6,0.7,0.9,1.1c0.2-0.2,0.4-0.5,0.6-0.7c0.4-0.3,0.5-0.7,0.5-1.2
		c0-1.2,0-2.4,0-3.7C50.6,49.3,50.6,48.1,50.6,46.8z M52.4,36.2c-1.9,0.8-3.8,0.8-5.7,0c0,0.6,0,1.2,0,1.7c0,0.1,0,0.2,0.1,0.3
		c0.9,0.8,1.8,1.6,2.7,2.4c0.9-0.8,1.8-1.5,2.6-2.3c0.1-0.1,0.2-0.2,0.2-0.4C52.4,37.4,52.4,36.8,52.4,36.2z M52.1,43.2
		c1.2-1.3,2.5-2.6,3.6-3.9c-1.2-0.4-2.6-0.9-3.7,0.6c-0.1,0.1-0.3,0.2-0.4,0.4c-0.4,0.4-0.8,0.7-1.3,1.1
		C50.9,42,51.5,42.5,52.1,43.2z M48.8,41.3c-0.9-0.8-1.8-1.5-2.6-2.3c-0.1-0.1-0.2-0.1-0.3-0.1c-0.9,0-1.7,0.1-2.3,0.4
		c1.1,1.3,2.3,2.6,3.5,3.9C47.7,42.5,48.2,42,48.8,41.3z M25.6,48.7C25.6,48.7,25.7,48.7,25.6,48.7c-0.6-1.6-1.3-3.1-2.1-4.5
		c0-0.1-0.2-0.2-0.3-0.2c-0.6,0.1-1.2,0.2-1.8,0.2c0.3,1.3,0.6,2.5,0.9,3.8c0.3-0.1,0.6-0.1,0.8-0.2c0.5-0.2,0.9-0.1,1.3,0.2
		C24.8,48.2,25.2,48.5,25.6,48.7z M28.5,48.7C28.6,48.7,28.6,48.7,28.5,48.7c0.5-0.2,1-0.6,1.4-0.8c0.2-0.1,0.5-0.2,0.8-0.1
		c0.3,0,0.7,0.2,1,0.3c0.3-1.2,0.6-2.4,0.8-3.7c-0.6-0.1-1.1-0.1-1.6-0.2c-0.3-0.1-0.4,0.1-0.6,0.3c-0.4,0.8-0.8,1.6-1.1,2.4
		C29.1,47.4,28.8,48,28.5,48.7z M49.6,42.1c-0.4,0.4-0.8,0.9-1.2,1.2c-0.5,0.4-0.5,0.8-0.3,1.4c0.3,0.9,0.3,0.9,1.3,0.9
		c1.4,0,1.4,0,1.8-1.4c0,0,0,0,0,0c0-0.2,0-0.4-0.1-0.5C50.6,43.2,50.1,42.7,49.6,42.1z M34.5,53c0,1.7,0,3.3,0,5c0.5,0,0.9,0,1.4,0
		c0-1.7,0-3.3,0-5C35.4,53,35,53,34.5,53z M52.5,26c-0.8,0-1.5,0.7-1.5,1.5c0,0.8,0.7,1.4,1.4,1.4c0.8,0,1.5-0.7,1.5-1.5
		C53.9,26.7,53.3,26,52.5,26z M48.1,27.5c0-0.8-0.6-1.5-1.4-1.5c-0.8,0-1.4,0.6-1.4,1.4c0,0.8,0.6,1.4,1.4,1.4
		C47.4,28.9,48.1,28.3,48.1,27.5z M31.3,33c0-0.8-0.6-1.4-1.4-1.4c-0.8,0-1.4,0.6-1.4,1.3c0,0.8,0.6,1.4,1.4,1.4
		C30.7,34.3,31.3,33.7,31.3,33z M24.3,31.6c-0.8,0-1.4,0.6-1.4,1.3c0,0.8,0.6,1.4,1.4,1.4c0.8,0,1.4-0.6,1.4-1.4
		C25.7,32.2,25.1,31.6,24.3,31.6z"/>
</g>
</svg>
