<?xml version="1.0" encoding="utf-8"?>
<!-- Generator: Adobe Illustrator 28.2.0, SVG Export Plug-In . SVG Version: 6.00 Build 0)  -->
<svg version="1.1" id="Capa_1" xmlns="http://www.w3.org/2000/svg" xmlns:xlink="http://www.w3.org/1999/xlink" x="0px" y="0px"
	 viewBox="0 0 80.2 80" style="enable-background:new 0 0 80.2 80;" xml:space="preserve">
<style type="text/css">
	.st0{fill:#FFFFFF;}
	.st1{fill:#07355A;}
</style>
<g>
	<g>
		<ellipse class="st0" cx="40.1" cy="40" rx="40.1" ry="40"/>
	</g>
</g>
<g>
	<g>
		<path class="st1" d="M15,58.5c0.4-1.3,0.6-2.7,1.2-4c1.3-2.6,2.7-5.2,4.1-7.7c0.2-0.4,0.7-0.5,1.1-0.3c0.3,0.2,0.4,0.6,0.2,1.1
			c-0.7,1.3-1.4,2.5-2.1,3.8c-1,1.9-2.1,3.7-2.6,5.8c-0.3,1.3-0.5,2.5-0.1,3.8c0.7,2.6,5,4.4,7.5,1.8c1.2-1.3,2-2.8,2.4-4.4
			c0.9-3.4,1.7-6.9,2.5-10.4c0.5-2.2,0.9-4.3,1.3-6.5c0.1-0.3,0-0.5-0.3-0.6c-1.2-0.5-2.5-0.9-3.7-1.4c-0.6,1-1.2,1.9-1.7,2.8
			c-0.5,0.8-0.9,1.5-1.4,2.3c-0.3,0.5-0.7,0.7-1.1,0.4c-0.4-0.3-0.5-0.7-0.2-1.2c0.4-0.7,0.9-1.4,1.3-2.1c0,0,0-0.1,0-0.1
			c-0.1-0.1-0.1-0.1-0.2-0.2c-1.2-0.7-1.6-1.9-1.4-3.2c0-0.1,0-0.4-0.1-0.4c-1.6-1.2-1.8-2.8-0.5-4.5c-0.4-0.7-0.7-1.4-0.5-2.2
			c0.1-0.6,0.4-1.2,0.9-1.6c0.1-0.1,0.2-0.4,0.2-0.5c-0.2-1.5,0.5-2.6,1.8-3.2c0.1-0.1,0.3-0.2,0.3-0.4c0.3-1.4,1.3-2.2,2.6-2.3
			c0.3,0,0.4-0.1,0.5-0.5c0.1-1.6,1.4-2.9,3-3.1c0.5-0.1,0.9-0.3,1.2-0.7c0.8-1.1,2.2-1.5,3.4-1.1c0.5,0.2,0.8,0.1,1.2-0.1
			c0.9-0.6,1.9-0.6,2.9,0c0.4,0.2,0.7,0.3,1.1,0.2c0.4-0.1,0.9,0,1.3,0c0.3,0,0.7,0,1-0.2c1.1-0.5,2.1-0.4,3.1,0.2
			c0.2,0.2,0.6,0.2,0.9,0.2c1.6-0.3,2.3,0,3.2,1.3c0.1,0.1,0.3,0.2,0.5,0.3c1.5,0.4,2.5,1.5,2.6,3.1c0,0.3,0.1,0.4,0.4,0.4
			c1.4,0.1,2.4,1,2.6,2.3c0,0.1,0.2,0.3,0.3,0.4c1.3,0.6,2,1.7,1.8,3.2c0,0.2,0,0.4,0.1,0.5c1.1,1.2,1.3,2.4,0.5,3.8
			c0.2,0.5,0.5,0.9,0.7,1.4c0.3,1.2-0.1,2.3-1.1,3c-0.1,0.1-0.3,0.3-0.2,0.4c0.4,1.5-0.2,2.7-1.6,3.5c0.5,0.8,1,1.5,1.4,2.3
			c0.1,0.2,0.2,0.6,0.1,0.9c-0.3,0.5-0.9,0.5-1.2,0c-0.5-0.8-1-1.6-1.4-2.3c-0.6-0.9-1.2-1.9-1.8-2.9c-1.3,0.5-2.6,1-3.9,1.5
			c-0.1,0-0.2,0.3-0.1,0.4c0.6,3,1.2,6.1,1.9,9.1c0.6,2.8,1.4,5.6,2.2,8.4c0.4,1.4,1.1,2.6,2.1,3.7c1.5,1.6,3.3,1.9,5.4,0.9
			c1.8-0.8,2.7-2.6,2.5-4.6c-0.2-2-0.9-3.8-1.9-5.5c-1-1.9-2.1-3.7-3.1-5.6c-0.1-0.1-0.2-0.2-0.2-0.4c-0.1-0.4-0.1-0.7,0.3-0.9
			c0.4-0.2,0.8-0.1,1,0.2c1.8,3.2,3.8,6.3,4.9,9.9c0.4,1.4,0.6,2.8,0.3,4.2c-0.6,2.6-2.9,4.6-5.6,4.7c-2.5,0.1-5,0-7.5,0
			c-0.5,0-0.8-0.3-0.8-0.8c0-0.4,0.3-0.7,0.8-0.7c0.9,0,1.7,0,2.6,0c0.2,0,0.3,0,0.6,0c-0.3-0.3-0.5-0.6-0.8-0.9
			c-1.3-1.6-2-3.5-2.6-5.5c-0.4-1.4-0.7-2.8-1.1-4.2c-0.1-0.3-0.2-0.4-0.5-0.5c-1.1-0.3-2.2-0.6-3.4-0.8c-0.2,0-0.4,0-0.5,0.1
			c-1.4,1.3-3.2,1.9-5.1,2.1c-2.1,0.2-4.1-0.3-5.9-1.5c-0.1-0.1-0.3-0.2-0.3-0.3c-0.4-0.5-0.8-0.5-1.5-0.3c-0.9,0.3-1.8,0.5-2.7,0.7
			c-0.4,0.1-0.5,0.2-0.5,0.5c-0.5,1.8-0.9,3.7-1.5,5.5c-0.6,1.9-1.4,3.6-3,5.1c0.3,0,0.5,0,0.7,0c7.2,0,14.5,0,21.7,0
			c0.2,0,0.5,0,0.7,0.1c0.2,0.2,0.4,0.4,0.5,0.7c0,0.3-0.2,0.6-0.6,0.7c-0.2,0-0.3,0-0.5,0c-8.6,0-17.3,0-25.9,0
			c-1.4,0-2.7-0.3-3.9-1c-1.4-0.9-2.3-2.2-2.6-3.8c0-0.1-0.1-0.2-0.1-0.4C15,59.7,15,59.1,15,58.5z M44.9,31.1
			c-3.4,1.6-6.8,1.6-10.2,0c-0.7,1-1.4,2-2,3.1c-1,1.7-0.9,3.6-0.9,5.4c0,0.1,0,0.2,0.1,0.2c0.3,0.3,0.3,0.6,0.3,1
			c-0.1,0.4-0.2,0.9-0.2,1.3c0,0.3,0,0.6,0.1,0.8c0.5,0.8,1,1.6,1.7,2.2c2.1,2.1,4.7,3.1,7.7,2.5c2.5-0.5,4.2-2,5.7-4
			c0.5-0.7,0.6-1.3,0.4-2.1c-0.2-0.6-0.5-1.3,0.2-1.8c0,0,0-0.1,0-0.1c0-1.1,0-2.2-0.2-3.3C47.4,34.3,46,32.7,44.9,31.1z M36.2,48.7
			c-0.5,0.8-0.9,1.6-1.4,2.4c2.4,2.5,7.9,2.2,9.8,0c-0.4-0.8-0.9-1.5-1.3-2.3C40.9,49.6,38.5,49.6,36.2,48.7z M49.4,39.2
			c0.7-0.3,1.5-0.6,2.2-0.9c0.1,0,0.2-0.2,0.2-0.4c0.1-0.8,0.1-1.6,0.1-2.4c0.1-1.5-0.5-2.7-1.6-3.7c-1.4-1.2-2.7-2.4-4.1-3.6
			c-0.1-0.1-0.2-0.2-0.3-0.3c-0.3-0.2-0.6-0.1-0.6,0.3c0,0.4,0.1,0.8,0.3,1.1c0.6,0.9,1.3,1.8,1.9,2.8c0.7,1,1.3,2.2,1.5,3.4
			C49.2,36.8,49.3,38,49.4,39.2z M30.3,39.3c0-0.4,0-0.6,0-0.9c-0.1-2.2,0.5-4.2,1.7-6c0.7-1,1.4-1.9,2-2.9c0.2-0.2,0.3-0.6,0.3-0.8
			c0-0.2-0.1-0.5-0.3-0.6c-0.1-0.1-0.4,0.1-0.6,0.2c-1.4,1.2-2.9,2.5-4.3,3.8c-0.7,0.6-1.3,1.4-1.4,2.4c-0.1,1.2,0,2.5,0,3.7
			c0,0.1,0.1,0.2,0.2,0.2C28.7,38.7,29.5,39,30.3,39.3z M44.5,48.1c0.5,0.7,0.9,1.5,1.3,2.2c0.1,0.1,0.2,0.3,0.4,0.3
			c1.1,0.3,2.1,0.7,3.3,1c-0.5-2.4-1-4.6-1.4-6.8C47.2,46.1,46,47.2,44.5,48.1z M30,51.3c0,0.1,0.1,0.1,0.1,0.2c1-0.3,2.1-0.7,3.1-1
			c0.1,0,0.1-0.1,0.2-0.1c0.5-0.8,1-1.6,1.4-2.2c-1.2-1.2-2.3-2.2-3.4-3.2C30.9,47,30.5,49.2,30,51.3z"/>
	</g>
	<g>
		<path class="st1" d="M59,20.5c-0.3,0.8-0.5,1.4-0.8,2.1c-0.2,0.6-0.6,0.8-1,0.6c-0.4-0.2-0.5-0.6-0.3-1.1c0.2-0.7,0.5-1.4,0.7-2
			c0.4-1.1,1.5-1.4,2.3-0.5c0.1,0.1,0.2,0.3,0.4,0.5c0,0,0.1-0.1,0.1-0.1c0.2-0.6,0.4-1.2,0.6-1.8c0.2-0.6,0.5-0.8,1-0.6
			c0.4,0.1,0.6,0.5,0.4,1.1c-0.2,0.7-0.4,1.3-0.7,2c-0.4,1.1-1.5,1.4-2.3,0.5C59.3,21,59.2,20.8,59,20.5z"/>
	</g>
	<g>
		<path class="st1" d="M20.9,20.6c-0.2,0.2-0.3,0.5-0.5,0.7c-0.7,0.6-1.8,0.4-2.1-0.5c-0.3-0.7-0.5-1.5-0.8-2.3
			c-0.1-0.4,0.1-0.8,0.4-0.9c0.4-0.1,0.8,0,0.9,0.5c0.2,0.6,0.4,1.3,0.7,2c0.2-0.2,0.4-0.4,0.6-0.5c0.8-0.7,1.8-0.5,2.2,0.5
			c0.3,0.7,0.6,1.5,0.8,2.3c0.2,0.5,0,0.9-0.4,1c-0.4,0.2-0.8,0-1-0.5c-0.3-0.7-0.5-1.3-0.7-2C21,20.7,21,20.6,20.9,20.6z"/>
	</g>
	<g>
		<path class="st1" d="M16.9,39.2c0.6,0,0.9,0.2,0.9,0.7c0,0.5-0.3,0.7-0.9,0.7c-0.6,0-0.9-0.2-0.9-0.7C16,39.5,16.3,39.2,16.9,39.2
			z"/>
	</g>
	<g>
		<path class="st1" d="M19.9,39.2c0.6,0,0.9,0.2,0.9,0.7c0,0.5-0.3,0.7-0.9,0.7c-0.6,0-0.9-0.3-1-0.7C19,39.5,19.4,39.2,19.9,39.2z"
			/>
	</g>
	<g>
		<path class="st1" d="M62.4,40.2c0.6,0,0.9,0.3,0.9,0.7c0,0.5-0.3,0.7-0.9,0.7c-0.6,0-0.9-0.3-0.9-0.7
			C61.4,40.4,61.7,40.2,62.4,40.2z"/>
	</g>
	<g>
		<path class="st1" d="M17.7,38.3c0-0.6,0.3-0.9,0.7-0.9c0.5,0,0.7,0.4,0.7,1c0,0.6-0.3,0.9-0.8,0.9C18,39.2,17.7,38.9,17.7,38.3z"
			/>
	</g>
	<g>
		<path class="st1" d="M61.5,39.3c0,0.6-0.2,0.9-0.7,0.9c-0.5,0-0.7-0.3-0.7-0.9c0-0.6,0.3-0.9,0.7-0.9
			C61.3,38.4,61.5,38.7,61.5,39.3z"/>
	</g>
	<g>
		<path class="st1" d="M59.2,40.1c0.6,0.1,0.9,0.3,1,0.7c0,0.4-0.1,0.6-0.4,0.8c-0.5,0.2-1.1,0.1-1.3-0.3c-0.1-0.2-0.1-0.6,0-0.7
			C58.7,40.3,59,40.2,59.2,40.1z"/>
	</g>
	<g>
		<path class="st1" d="M17.7,41.5c0-0.6,0.3-0.9,0.7-0.9c0.5,0,0.7,0.4,0.7,0.9c0,0.6-0.3,0.9-0.7,0.9C18,42.5,17.7,42.1,17.7,41.5z
			"/>
	</g>
	<g>
		<path class="st1" d="M61.5,42.5c0,0.6-0.2,0.9-0.7,1c-0.5,0-0.7-0.3-0.7-0.9c0-0.6,0.3-0.9,0.7-1C61.3,41.6,61.5,41.9,61.5,42.5z"
			/>
	</g>
</g>
</svg>
